<?xml version="1.0" encoding="UTF-8" standalone="no"?><svg xmlns="http://www.w3.org/2000/svg" xmlns:xlink="http://www.w3.org/1999/xlink" contentScriptType="application/ecmascript" contentStyleType="text/css" height="564px" preserveAspectRatio="none" style="width:1766px;height:564px;" version="1.1" viewBox="0 0 1766 564" width="1766px" zoomAndPan="magnify"><defs><filter height="300%" id="f17uef6kx88x69" width="300%" x="-1" y="-1"><feGaussianBlur result="blurOut" stdDeviation="2.0"/><feColorMatrix in="blurOut" result="blurOut2" type="matrix" values="0 0 0 0 0 0 0 0 0 0 0 0 0 0 0 0 0 0 .4 0"/><feOffset dx="4.0" dy="4.0" in="blurOut2" result="blurOut3"/><feBlend in="SourceGraphic" in2="blurOut3" mode="normal"/></filter></defs><g><!--class Query--><rect fill="#FEFECE" filter="url(#f17uef6kx88x69)" height="151.6406" id="Query" style="stroke: #A80036; stroke-width: 1.5;" width="200" x="6" y="299"/><ellipse cx="84.75" cy="315" fill="#ADD1B2" rx="11" ry="11" style="stroke: #A80036; stroke-width: 1.0;"/><path d="M87.2231,321.1431 Q86.6421,321.4419 86.0029,321.5913 Q85.3638,321.7407 84.6582,321.7407 Q82.1514,321.7407 80.8315,320.0889 Q79.5117,318.437 79.5117,315.3159 Q79.5117,312.1865 80.8315,310.5347 Q82.1514,308.8828 84.6582,308.8828 Q85.3638,308.8828 86.0112,309.0322 Q86.6587,309.1816 87.2231,309.4805 L87.2231,312.2031 Q86.5923,311.6221 85.9988,311.3523 Q85.4053,311.0825 84.7744,311.0825 Q83.4297,311.0825 82.7449,312.1492 Q82.0601,313.2158 82.0601,315.3159 Q82.0601,317.4077 82.7449,318.4744 Q83.4297,319.541 84.7744,319.541 Q85.4053,319.541 85.9988,319.2712 Q86.5923,319.0015 87.2231,318.4204 Z "/><text fill="#000000" font-family="sans-serif" font-size="12" lengthAdjust="spacingAndGlyphs" textLength="34" x="105.25" y="319.5352">Query</text><line style="stroke: #A80036; stroke-width: 1.5;" x1="7" x2="205" y1="331" y2="331"/><ellipse cx="17" cy="342.9775" fill="none" rx="3" ry="3" style="stroke: #038048; stroke-width: 1.0;"/><text fill="#000000" font-family="sans-serif" font-size="11" lengthAdjust="spacingAndGlyphs" textLength="67" x="26" y="345.6348">name: String</text><ellipse cx="17" cy="355.9326" fill="none" rx="3" ry="3" style="stroke: #038048; stroke-width: 1.0;"/><text fill="#000000" font-family="sans-serif" font-size="11" lengthAdjust="spacingAndGlyphs" textLength="115" x="26" y="358.5898">{opt} identifier: String</text><ellipse cx="17" cy="368.8877" fill="none" rx="3" ry="3" style="stroke: #038048; stroke-width: 1.0;"/><text fill="#000000" font-family="sans-serif" font-size="11" lengthAdjust="spacingAndGlyphs" textLength="90" x="26" y="371.5449">{opt} type: String</text><ellipse cx="17" cy="381.8428" fill="none" rx="3" ry="3" style="stroke: #038048; stroke-width: 1.0;"/><text fill="#000000" font-family="sans-serif" font-size="11" lengthAdjust="spacingAndGlyphs" textLength="174" x="26" y="384.5">{opt} result_entity_name: String?</text><ellipse cx="17" cy="394.7979" fill="none" rx="3" ry="3" style="stroke: #038048; stroke-width: 1.0;"/><text fill="#000000" font-family="sans-serif" font-size="11" lengthAdjust="spacingAndGlyphs" textLength="128" x="26" y="397.4551">{opt} description: String</text><ellipse cx="17" cy="407.7529" fill="none" rx="3" ry="3" style="stroke: #038048; stroke-width: 1.0;"/><text fill="#000000" font-family="sans-serif" font-size="11" lengthAdjust="spacingAndGlyphs" textLength="123" x="26" y="410.4102">{opt} cardinality: String</text><ellipse cx="17" cy="420.708" fill="none" rx="3" ry="3" style="stroke: #038048; stroke-width: 1.0;"/><text fill="#000000" font-family="sans-serif" font-size="11" lengthAdjust="spacingAndGlyphs" textLength="78" x="26" y="423.3652">snippet: String</text><ellipse cx="17" cy="433.6631" fill="none" rx="3" ry="3" style="stroke: #038048; stroke-width: 1.0;"/><text fill="#000000" font-family="sans-serif" font-size="11" lengthAdjust="spacingAndGlyphs" textLength="120" x="26" y="436.3203">{get} oneliner: Boolean</text><line style="stroke: #A80036; stroke-width: 1.5;" x1="7" x2="205" y1="442.6406" y2="442.6406"/><!--class Entity--><rect fill="#FEFECE" filter="url(#f17uef6kx88x69)" height="216.416" id="Entity" style="stroke: #A80036; stroke-width: 1.5;" width="236" x="347" y="267"/><ellipse cx="445.25" cy="283" fill="#ADD1B2" rx="11" ry="11" style="stroke: #A80036; stroke-width: 1.0;"/><path d="M447.7231,289.1431 Q447.1421,289.4419 446.5029,289.5913 Q445.8638,289.7407 445.1582,289.7407 Q442.6514,289.7407 441.3315,288.0889 Q440.0117,286.437 440.0117,283.3159 Q440.0117,280.1865 441.3315,278.5347 Q442.6514,276.8828 445.1582,276.8828 Q445.8638,276.8828 446.5112,277.0322 Q447.1587,277.1816 447.7231,277.4805 L447.7231,280.2031 Q447.0923,279.6221 446.4988,279.3523 Q445.9053,279.0825 445.2744,279.0825 Q443.9297,279.0825 443.2449,280.1492 Q442.5601,281.2158 442.5601,283.3159 Q442.5601,285.4077 443.2449,286.4744 Q443.9297,287.541 445.2744,287.541 Q445.9053,287.541 446.4988,287.2712 Q447.0923,287.0015 447.7231,286.4204 Z "/><text fill="#000000" font-family="sans-serif" font-size="12" lengthAdjust="spacingAndGlyphs" textLength="31" x="465.75" y="287.5352">Entity</text><line style="stroke: #A80036; stroke-width: 1.5;" x1="348" x2="582" y1="299" y2="299"/><ellipse cx="358" cy="310.9775" fill="none" rx="3" ry="3" style="stroke: #038048; stroke-width: 1.0;"/><text fill="#000000" font-family="sans-serif" font-size="11" lengthAdjust="spacingAndGlyphs" textLength="94" x="367" y="313.6348">{PK}  name: String</text><ellipse cx="358" cy="323.9326" fill="none" rx="3" ry="3" style="stroke: #038048; stroke-width: 1.0;"/><text fill="#000000" font-family="sans-serif" font-size="11" lengthAdjust="spacingAndGlyphs" textLength="125" x="367" y="326.5898">{PK}  namespace: String</text><ellipse cx="358" cy="336.8877" fill="none" rx="3" ry="3" style="stroke: #038048; stroke-width: 1.0;"/><text fill="#000000" font-family="sans-serif" font-size="11" lengthAdjust="spacingAndGlyphs" textLength="115" x="367" y="339.5449">{opt} identifier: String</text><ellipse cx="358" cy="349.8428" fill="none" rx="3" ry="3" style="stroke: #038048; stroke-width: 1.0;"/><text fill="#000000" font-family="sans-serif" font-size="11" lengthAdjust="spacingAndGlyphs" textLength="128" x="367" y="352.5">{opt} description: String</text><ellipse cx="358" cy="362.7979" fill="none" rx="3" ry="3" style="stroke: #038048; stroke-width: 1.0;"/><text fill="#000000" font-family="sans-serif" font-size="11" lengthAdjust="spacingAndGlyphs" textLength="144" x="367" y="365.4551">{opt} value_object: Boolean</text><ellipse cx="358" cy="375.7529" fill="none" rx="3" ry="3" style="stroke: #038048; stroke-width: 1.0;"/><text fill="#000000" font-family="sans-serif" font-size="11" lengthAdjust="spacingAndGlyphs" textLength="128" x="367" y="378.4102">{get} class_name: String</text><ellipse cx="358" cy="388.708" fill="none" rx="3" ry="3" style="stroke: #038048; stroke-width: 1.0;"/><text fill="#000000" font-family="sans-serif" font-size="11" lengthAdjust="spacingAndGlyphs" textLength="132" x="367" y="391.3652">{opt} subtype_of: String?</text><ellipse cx="358" cy="401.6631" fill="none" rx="3" ry="3" style="stroke: #038048; stroke-width: 1.0;"/><text fill="#000000" font-family="sans-serif" font-size="11" lengthAdjust="spacingAndGlyphs" textLength="168" x="367" y="404.3203">{opt} subtype_key_value: String</text><ellipse cx="358" cy="414.6182" fill="none" rx="3" ry="3" style="stroke: #038048; stroke-width: 1.0;"/><text fill="#000000" font-family="sans-serif" font-size="11" lengthAdjust="spacingAndGlyphs" textLength="124" x="367" y="417.2754">{get} inherited: Boolean</text><ellipse cx="358" cy="427.5732" fill="none" rx="3" ry="3" style="stroke: #038048; stroke-width: 1.0;"/><text fill="#000000" font-family="sans-serif" font-size="11" lengthAdjust="spacingAndGlyphs" textLength="124" x="367" y="430.2305">{get} top_level: Boolean</text><ellipse cx="358" cy="440.5283" fill="none" rx="3" ry="3" style="stroke: #038048; stroke-width: 1.0;"/><text fill="#000000" font-family="sans-serif" font-size="11" lengthAdjust="spacingAndGlyphs" textLength="191" x="367" y="443.1855">{get} supports_namespace: Boolean</text><ellipse cx="358" cy="453.4834" fill="none" rx="3" ry="3" style="stroke: #038048; stroke-width: 1.0;"/><text fill="#000000" font-family="sans-serif" font-size="11" lengthAdjust="spacingAndGlyphs" textLength="84" x="367" y="456.1406">{get} fqn: String</text><ellipse cx="358" cy="466.4385" fill="none" rx="3" ry="3" style="stroke: #038048; stroke-width: 1.0;"/><text fill="#000000" font-family="sans-serif" font-size="11" lengthAdjust="spacingAndGlyphs" textLength="210" x="367" y="469.0957">{get} primary_key_names: List&lt;String&gt;</text><line style="stroke: #A80036; stroke-width: 1.5;" x1="348" x2="582" y1="475.416" y2="475.416"/><!--class Property--><rect fill="#FEFECE" filter="url(#f17uef6kx88x69)" height="268.2363" id="Property" style="stroke: #A80036; stroke-width: 1.5;" width="202" x="746" y="8"/><ellipse cx="818.25" cy="24" fill="#ADD1B2" rx="11" ry="11" style="stroke: #A80036; stroke-width: 1.0;"/><path d="M820.7231,30.1431 Q820.1421,30.4419 819.5029,30.5913 Q818.8638,30.7407 818.1582,30.7407 Q815.6514,30.7407 814.3315,29.0889 Q813.0117,27.437 813.0117,24.3159 Q813.0117,21.1865 814.3315,19.5347 Q815.6514,17.8828 818.1582,17.8828 Q818.8638,17.8828 819.5112,18.0322 Q820.1587,18.1816 820.7231,18.4805 L820.7231,21.2031 Q820.0923,20.6221 819.4988,20.3523 Q818.9053,20.0825 818.2744,20.0825 Q816.9297,20.0825 816.2449,21.1492 Q815.5601,22.2158 815.5601,24.3159 Q815.5601,26.4077 816.2449,27.4744 Q816.9297,28.541 818.2744,28.541 Q818.9053,28.541 819.4988,28.2712 Q820.0923,28.0015 820.7231,27.4204 Z "/><text fill="#000000" font-family="sans-serif" font-size="12" lengthAdjust="spacingAndGlyphs" textLength="49" x="838.75" y="28.5352">Property</text><line style="stroke: #A80036; stroke-width: 1.5;" x1="747" x2="947" y1="40" y2="40"/><ellipse cx="757" cy="51.9775" fill="none" rx="3" ry="3" style="stroke: #038048; stroke-width: 1.0;"/><text fill="#000000" font-family="sans-serif" font-size="11" lengthAdjust="spacingAndGlyphs" textLength="94" x="766" y="54.6348">{PK}  name: String</text><ellipse cx="757" cy="64.9326" fill="none" rx="3" ry="3" style="stroke: #038048; stroke-width: 1.0;"/><text fill="#000000" font-family="sans-serif" font-size="11" lengthAdjust="spacingAndGlyphs" textLength="115" x="766" y="67.5898">{opt} identifier: String</text><ellipse cx="757" cy="77.8877" fill="none" rx="3" ry="3" style="stroke: #038048; stroke-width: 1.0;"/><text fill="#000000" font-family="sans-serif" font-size="11" lengthAdjust="spacingAndGlyphs" textLength="143" x="766" y="80.5449">{opt} primary_key: Boolean</text><ellipse cx="757" cy="90.8428" fill="none" rx="3" ry="3" style="stroke: #038048; stroke-width: 1.0;"/><text fill="#000000" font-family="sans-serif" font-size="11" lengthAdjust="spacingAndGlyphs" textLength="144" x="766" y="93.5">{opt} subtype_key: Boolean</text><ellipse cx="757" cy="103.7979" fill="none" rx="3" ry="3" style="stroke: #038048; stroke-width: 1.0;"/><text fill="#000000" font-family="sans-serif" font-size="11" lengthAdjust="spacingAndGlyphs" textLength="61" x="766" y="106.4551">type: String</text><ellipse cx="757" cy="116.7529" fill="none" rx="3" ry="3" style="stroke: #038048; stroke-width: 1.0;"/><text fill="#000000" font-family="sans-serif" font-size="11" lengthAdjust="spacingAndGlyphs" textLength="176" x="766" y="119.4102">{opt} domain_type_name: String?</text><ellipse cx="757" cy="129.708" fill="none" rx="3" ry="3" style="stroke: #038048; stroke-width: 1.0;"/><text fill="#000000" font-family="sans-serif" font-size="11" lengthAdjust="spacingAndGlyphs" textLength="70" x="766" y="132.3652">{opt} size: Int</text><ellipse cx="757" cy="142.6631" fill="none" rx="3" ry="3" style="stroke: #038048; stroke-width: 1.0;"/><text fill="#000000" font-family="sans-serif" font-size="11" lengthAdjust="spacingAndGlyphs" textLength="121" x="766" y="145.3203">{opt} optional: Boolean</text><ellipse cx="757" cy="155.6182" fill="none" rx="3" ry="3" style="stroke: #038048; stroke-width: 1.0;"/><text fill="#000000" font-family="sans-serif" font-size="11" lengthAdjust="spacingAndGlyphs" textLength="128" x="766" y="158.2754">{opt} description: String</text><ellipse cx="757" cy="168.5732" fill="none" rx="3" ry="3" style="stroke: #038048; stroke-width: 1.0;"/><text fill="#000000" font-family="sans-serif" font-size="11" lengthAdjust="spacingAndGlyphs" textLength="143" x="766" y="171.2305">{opt} default_value: String?</text><ellipse cx="757" cy="181.5283" fill="none" rx="3" ry="3" style="stroke: #038048; stroke-width: 1.0;"/><text fill="#000000" font-family="sans-serif" font-size="11" lengthAdjust="spacingAndGlyphs" textLength="146" x="766" y="184.1855">{opt} example_value: String</text><ellipse cx="757" cy="194.4834" fill="none" rx="3" ry="3" style="stroke: #038048; stroke-width: 1.0;"/><text fill="#000000" font-family="sans-serif" font-size="11" lengthAdjust="spacingAndGlyphs" textLength="174" x="766" y="197.1406">{opt} table_column_name: String</text><ellipse cx="757" cy="207.4385" fill="none" rx="3" ry="3" style="stroke: #038048; stroke-width: 1.0;"/><text fill="#000000" font-family="sans-serif" font-size="11" lengthAdjust="spacingAndGlyphs" textLength="112" x="766" y="210.0957">{opt} snippet: String?</text><ellipse cx="757" cy="220.3936" fill="none" rx="3" ry="3" style="stroke: #038048; stroke-width: 1.0;"/><text fill="#000000" font-family="sans-serif" font-size="11" lengthAdjust="spacingAndGlyphs" textLength="120" x="766" y="223.0508">{opt} multiple: Boolean</text><ellipse cx="757" cy="233.3486" fill="none" rx="3" ry="3" style="stroke: #038048; stroke-width: 1.0;"/><text fill="#000000" font-family="sans-serif" font-size="11" lengthAdjust="spacingAndGlyphs" textLength="148" x="766" y="236.0059">{get} property_name: String</text><ellipse cx="757" cy="246.3037" fill="none" rx="3" ry="3" style="stroke: #038048; stroke-width: 1.0;"/><text fill="#000000" font-family="sans-serif" font-size="11" lengthAdjust="spacingAndGlyphs" textLength="128" x="766" y="248.9609">{get} class_name: String</text><ellipse cx="757" cy="259.2588" fill="none" rx="3" ry="3" style="stroke: #038048; stroke-width: 1.0;"/><text fill="#000000" font-family="sans-serif" font-size="11" lengthAdjust="spacingAndGlyphs" textLength="118" x="766" y="261.916">{get} nullable: Boolean</text><line style="stroke: #A80036; stroke-width: 1.5;" x1="747" x2="947" y1="268.2363" y2="268.2363"/><!--class Relationship--><rect fill="#FEFECE" filter="url(#f17uef6kx88x69)" height="242.3262" id="Relationship" style="stroke: #A80036; stroke-width: 1.5;" width="186" x="754" y="311"/><ellipse cx="807.75" cy="327" fill="#ADD1B2" rx="11" ry="11" style="stroke: #A80036; stroke-width: 1.0;"/><path d="M810.2231,333.1431 Q809.6421,333.4419 809.0029,333.5913 Q808.3638,333.7407 807.6582,333.7407 Q805.1514,333.7407 803.8315,332.0889 Q802.5117,330.437 802.5117,327.3159 Q802.5117,324.1865 803.8315,322.5347 Q805.1514,320.8828 807.6582,320.8828 Q808.3638,320.8828 809.0112,321.0322 Q809.6587,321.1816 810.2231,321.4805 L810.2231,324.2031 Q809.5923,323.6221 808.9988,323.3523 Q808.4053,323.0825 807.7744,323.0825 Q806.4297,323.0825 805.7449,324.1492 Q805.0601,325.2158 805.0601,327.3159 Q805.0601,329.4077 805.7449,330.4744 Q806.4297,331.541 807.7744,331.541 Q808.4053,331.541 808.9988,331.2712 Q809.5923,331.0015 810.2231,330.4204 Z "/><text fill="#000000" font-family="sans-serif" font-size="12" lengthAdjust="spacingAndGlyphs" textLength="70" x="828.25" y="331.5352">Relationship</text><line style="stroke: #A80036; stroke-width: 1.5;" x1="755" x2="939" y1="343" y2="343"/><ellipse cx="765" cy="354.9775" fill="none" rx="3" ry="3" style="stroke: #038048; stroke-width: 1.0;"/><text fill="#000000" font-family="sans-serif" font-size="11" lengthAdjust="spacingAndGlyphs" textLength="94" x="774" y="357.6348">{PK}  name: String</text><ellipse cx="765" cy="367.9326" fill="none" rx="3" ry="3" style="stroke: #038048; stroke-width: 1.0;"/><text fill="#000000" font-family="sans-serif" font-size="11" lengthAdjust="spacingAndGlyphs" textLength="115" x="774" y="370.5898">{opt} identifier: String</text><ellipse cx="765" cy="380.8877" fill="none" rx="3" ry="3" style="stroke: #038048; stroke-width: 1.0;"/><text fill="#000000" font-family="sans-serif" font-size="11" lengthAdjust="spacingAndGlyphs" textLength="94" x="774" y="383.5449">cardinality: String</text><ellipse cx="765" cy="393.8428" fill="none" rx="3" ry="3" style="stroke: #038048; stroke-width: 1.0;"/><text fill="#000000" font-family="sans-serif" font-size="11" lengthAdjust="spacingAndGlyphs" textLength="160" x="774" y="396.5">reference_entity_name: String</text><ellipse cx="765" cy="406.7979" fill="none" rx="3" ry="3" style="stroke: #038048; stroke-width: 1.0;"/><text fill="#000000" font-family="sans-serif" font-size="11" lengthAdjust="spacingAndGlyphs" textLength="131" x="774" y="409.4551">{opt} aggregate: Boolean</text><ellipse cx="765" cy="419.7529" fill="none" rx="3" ry="3" style="stroke: #038048; stroke-width: 1.0;"/><text fill="#000000" font-family="sans-serif" font-size="11" lengthAdjust="spacingAndGlyphs" textLength="125" x="774" y="422.4102">{opt} inherited: Boolean</text><ellipse cx="765" cy="432.708" fill="none" rx="3" ry="3" style="stroke: #038048; stroke-width: 1.0;"/><text fill="#000000" font-family="sans-serif" font-size="11" lengthAdjust="spacingAndGlyphs" textLength="128" x="774" y="435.3652">{opt} description: String</text><ellipse cx="765" cy="445.6631" fill="none" rx="3" ry="3" style="stroke: #038048; stroke-width: 1.0;"/><text fill="#000000" font-family="sans-serif" font-size="11" lengthAdjust="spacingAndGlyphs" textLength="112" x="774" y="448.3203">{opt} snippet: String?</text><ellipse cx="765" cy="458.6182" fill="none" rx="3" ry="3" style="stroke: #038048; stroke-width: 1.0;"/><text fill="#000000" font-family="sans-serif" font-size="11" lengthAdjust="spacingAndGlyphs" textLength="128" x="774" y="461.2754">{get} class_name: String</text><ellipse cx="765" cy="471.5732" fill="none" rx="3" ry="3" style="stroke: #038048; stroke-width: 1.0;"/><text fill="#000000" font-family="sans-serif" font-size="11" lengthAdjust="spacingAndGlyphs" textLength="119" x="774" y="474.2305">{get} multiple: Boolean</text><ellipse cx="765" cy="484.5283" fill="none" rx="3" ry="3" style="stroke: #038048; stroke-width: 1.0;"/><text fill="#000000" font-family="sans-serif" font-size="11" lengthAdjust="spacingAndGlyphs" textLength="148" x="774" y="487.1855">{get} allows_empty: Boolean</text><ellipse cx="765" cy="497.4834" fill="none" rx="3" ry="3" style="stroke: #038048; stroke-width: 1.0;"/><text fill="#000000" font-family="sans-serif" font-size="11" lengthAdjust="spacingAndGlyphs" textLength="118" x="774" y="500.1406">{get} nullable: Boolean</text><ellipse cx="765" cy="510.4385" fill="none" rx="3" ry="3" style="stroke: #038048; stroke-width: 1.0;"/><text fill="#000000" font-family="sans-serif" font-size="11" lengthAdjust="spacingAndGlyphs" textLength="148" x="774" y="513.0957">{get} property_name: String</text><ellipse cx="765" cy="523.3936" fill="none" rx="3" ry="3" style="stroke: #038048; stroke-width: 1.0;"/><text fill="#000000" font-family="sans-serif" font-size="11" lengthAdjust="spacingAndGlyphs" textLength="143" x="774" y="526.0508">{get} bidirectional: Boolean</text><ellipse cx="765" cy="536.3486" fill="none" rx="3" ry="3" style="stroke: #038048; stroke-width: 1.0;"/><text fill="#000000" font-family="sans-serif" font-size="11" lengthAdjust="spacingAndGlyphs" textLength="126" x="774" y="539.0059">{get} recursive: Boolean</text><line style="stroke: #A80036; stroke-width: 1.5;" x1="755" x2="939" y1="545.3262" y2="545.3262"/><!--class ValueDomain--><rect fill="#FEFECE" filter="url(#f17uef6kx88x69)" height="60.9551" id="ValueDomain" style="stroke: #A80036; stroke-width: 1.5;" width="137" x="1354" y="111.5"/><ellipse cx="1382.05" cy="127.5" fill="#ADD1B2" rx="11" ry="11" style="stroke: #A80036; stroke-width: 1.0;"/><path d="M1384.5231,133.6431 Q1383.9421,133.9419 1383.3029,134.0913 Q1382.6638,134.2407 1381.9582,134.2407 Q1379.4514,134.2407 1378.1315,132.5889 Q1376.8117,130.937 1376.8117,127.8159 Q1376.8117,124.6865 1378.1315,123.0347 Q1379.4514,121.3828 1381.9582,121.3828 Q1382.6638,121.3828 1383.3112,121.5322 Q1383.9587,121.6816 1384.5231,121.9805 L1384.5231,124.7031 Q1383.8923,124.1221 1383.2988,123.8523 Q1382.7053,123.5825 1382.0744,123.5825 Q1380.7297,123.5825 1380.0449,124.6492 Q1379.3601,125.7158 1379.3601,127.8159 Q1379.3601,129.9077 1380.0449,130.9744 Q1380.7297,132.041 1382.0744,132.041 Q1382.7053,132.041 1383.2988,131.7712 Q1383.8923,131.5015 1384.5231,130.9204 Z "/><text fill="#000000" font-family="sans-serif" font-size="12" lengthAdjust="spacingAndGlyphs" textLength="76" x="1398.95" y="132.0352">ValueDomain</text><line style="stroke: #A80036; stroke-width: 1.5;" x1="1355" x2="1490" y1="143.5" y2="143.5"/><ellipse cx="1365" cy="155.4775" fill="none" rx="3" ry="3" style="stroke: #038048; stroke-width: 1.0;"/><text fill="#000000" font-family="sans-serif" font-size="11" lengthAdjust="spacingAndGlyphs" textLength="111" x="1374" y="158.1348">{opt} pattern: String?</text><line style="stroke: #A80036; stroke-width: 1.5;" x1="1355" x2="1490" y1="164.4551" y2="164.4551"/><!--class ValueDomainType--><rect fill="#FEFECE" filter="url(#f17uef6kx88x69)" height="86.8652" id="ValueDomainType" style="stroke: #A80036; stroke-width: 1.5;" width="154" x="1091" y="155.5"/><ellipse cx="1113.65" cy="171.5" fill="#ADD1B2" rx="11" ry="11" style="stroke: #A80036; stroke-width: 1.0;"/><path d="M1116.1231,177.6431 Q1115.5421,177.9419 1114.9029,178.0913 Q1114.2638,178.2407 1113.5582,178.2407 Q1111.0514,178.2407 1109.7315,176.5889 Q1108.4117,174.937 1108.4117,171.8159 Q1108.4117,168.6865 1109.7315,167.0347 Q1111.0514,165.3828 1113.5582,165.3828 Q1114.2638,165.3828 1114.9112,165.5322 Q1115.5587,165.6816 1116.1231,165.9805 L1116.1231,168.7031 Q1115.4923,168.1221 1114.8988,167.8523 Q1114.3053,167.5825 1113.6744,167.5825 Q1112.3297,167.5825 1111.6449,168.6492 Q1110.9601,169.7158 1110.9601,171.8159 Q1110.9601,173.9077 1111.6449,174.9744 Q1112.3297,176.041 1113.6744,176.041 Q1114.3053,176.041 1114.8988,175.7712 Q1115.4923,175.5015 1116.1231,174.9204 Z "/><text fill="#000000" font-family="sans-serif" font-size="12" lengthAdjust="spacingAndGlyphs" textLength="105" x="1129.35" y="176.0352">ValueDomainType</text><line style="stroke: #A80036; stroke-width: 1.5;" x1="1092" x2="1244" y1="187.5" y2="187.5"/><ellipse cx="1102" cy="199.4775" fill="none" rx="3" ry="3" style="stroke: #038048; stroke-width: 1.0;"/><text fill="#000000" font-family="sans-serif" font-size="11" lengthAdjust="spacingAndGlyphs" textLength="67" x="1111" y="202.1348">name: String</text><ellipse cx="1102" cy="212.4326" fill="none" rx="3" ry="3" style="stroke: #038048; stroke-width: 1.0;"/><text fill="#000000" font-family="sans-serif" font-size="11" lengthAdjust="spacingAndGlyphs" textLength="61" x="1111" y="215.0898">type: String</text><ellipse cx="1102" cy="225.3877" fill="none" rx="3" ry="3" style="stroke: #038048; stroke-width: 1.0;"/><text fill="#000000" font-family="sans-serif" font-size="11" lengthAdjust="spacingAndGlyphs" textLength="128" x="1111" y="228.0449">{opt} description: String</text><line style="stroke: #A80036; stroke-width: 1.5;" x1="1092" x2="1244" y1="234.3652" y2="234.3652"/><!--class PropertyMapping--><rect fill="#FEFECE" filter="url(#f17uef6kx88x69)" height="86.8652" id="PropertyMapping" style="stroke: #A80036; stroke-width: 1.5;" width="152" x="1092" y="388.5"/><ellipse cx="1116.45" cy="404.5" fill="#ADD1B2" rx="11" ry="11" style="stroke: #A80036; stroke-width: 1.0;"/><path d="M1118.9231,410.6431 Q1118.3421,410.9419 1117.7029,411.0913 Q1117.0638,411.2407 1116.3582,411.2407 Q1113.8514,411.2407 1112.5315,409.5889 Q1111.2117,407.937 1111.2117,404.8159 Q1111.2117,401.6865 1112.5315,400.0347 Q1113.8514,398.3828 1116.3582,398.3828 Q1117.0638,398.3828 1117.7112,398.5322 Q1118.3587,398.6816 1118.9231,398.9805 L1118.9231,401.7031 Q1118.2923,401.1221 1117.6988,400.8523 Q1117.1053,400.5825 1116.4744,400.5825 Q1115.1297,400.5825 1114.4449,401.6492 Q1113.7601,402.7158 1113.7601,404.8159 Q1113.7601,406.9077 1114.4449,407.9744 Q1115.1297,409.041 1116.4744,409.041 Q1117.1053,409.041 1117.6988,408.7712 Q1118.2923,408.5015 1118.9231,407.9204 Z "/><text fill="#000000" font-family="sans-serif" font-size="12" lengthAdjust="spacingAndGlyphs" textLength="99" x="1132.55" y="409.0352">PropertyMapping</text><line style="stroke: #A80036; stroke-width: 1.5;" x1="1093" x2="1243" y1="420.5" y2="420.5"/><ellipse cx="1103" cy="432.4775" fill="none" rx="3" ry="3" style="stroke: #038048; stroke-width: 1.0;"/><text fill="#000000" font-family="sans-serif" font-size="11" lengthAdjust="spacingAndGlyphs" textLength="64" x="1112" y="435.1348">from: String</text><ellipse cx="1103" cy="445.4326" fill="none" rx="3" ry="3" style="stroke: #038048; stroke-width: 1.0;"/><text fill="#000000" font-family="sans-serif" font-size="11" lengthAdjust="spacingAndGlyphs" textLength="49" x="1112" y="448.0898">to: String</text><ellipse cx="1103" cy="458.3877" fill="none" rx="3" ry="3" style="stroke: #038048; stroke-width: 1.0;"/><text fill="#000000" font-family="sans-serif" font-size="11" lengthAdjust="spacingAndGlyphs" textLength="126" x="1112" y="461.0449">{opt} null_value: String?</text><line style="stroke: #A80036; stroke-width: 1.5;" x1="1093" x2="1243" y1="467.3652" y2="467.3652"/><!--class ValueItem--><rect fill="#FEFECE" filter="url(#f17uef6kx88x69)" height="86.8652" id="ValueItem" style="stroke: #A80036; stroke-width: 1.5;" width="154" x="1601" y="98.5"/><ellipse cx="1645.25" cy="114.5" fill="#ADD1B2" rx="11" ry="11" style="stroke: #A80036; stroke-width: 1.0;"/><path d="M1647.7231,120.6431 Q1647.1421,120.9419 1646.5029,121.0913 Q1645.8638,121.2407 1645.1582,121.2407 Q1642.6514,121.2407 1641.3315,119.5889 Q1640.0117,117.937 1640.0117,114.8159 Q1640.0117,111.6865 1641.3315,110.0347 Q1642.6514,108.3828 1645.1582,108.3828 Q1645.8638,108.3828 1646.5112,108.5322 Q1647.1587,108.6816 1647.7231,108.9805 L1647.7231,111.7031 Q1647.0923,111.1221 1646.4988,110.8523 Q1645.9053,110.5825 1645.2744,110.5825 Q1643.9297,110.5825 1643.2449,111.6492 Q1642.5601,112.7158 1642.5601,114.8159 Q1642.5601,116.9077 1643.2449,117.9744 Q1643.9297,119.041 1645.2744,119.041 Q1645.9053,119.041 1646.4988,118.7712 Q1647.0923,118.5015 1647.7231,117.9204 Z "/><text fill="#000000" font-family="sans-serif" font-size="12" lengthAdjust="spacingAndGlyphs" textLength="57" x="1665.75" y="119.0352">ValueItem</text><line style="stroke: #A80036; stroke-width: 1.5;" x1="1602" x2="1754" y1="130.5" y2="130.5"/><ellipse cx="1612" cy="142.4775" fill="none" rx="3" ry="3" style="stroke: #038048; stroke-width: 1.0;"/><text fill="#000000" font-family="sans-serif" font-size="11" lengthAdjust="spacingAndGlyphs" textLength="66" x="1621" y="145.1348">value: String</text><ellipse cx="1612" cy="155.4326" fill="none" rx="3" ry="3" style="stroke: #038048; stroke-width: 1.0;"/><text fill="#000000" font-family="sans-serif" font-size="11" lengthAdjust="spacingAndGlyphs" textLength="92" x="1621" y="158.0898">{opt} label: String</text><ellipse cx="1612" cy="168.3877" fill="none" rx="3" ry="3" style="stroke: #038048; stroke-width: 1.0;"/><text fill="#000000" font-family="sans-serif" font-size="11" lengthAdjust="spacingAndGlyphs" textLength="128" x="1621" y="171.0449">{opt} description: String</text><line style="stroke: #A80036; stroke-width: 1.5;" x1="1602" x2="1754" y1="177.3652" y2="177.3652"/><!--class NamedValue--><rect fill="#FEFECE" filter="url(#f17uef6kx88x69)" height="73.9102" id="NamedValue" style="stroke: #A80036; stroke-width: 1.5;" width="124" x="44" y="190"/><ellipse cx="67.1" cy="206" fill="#ADD1B2" rx="11" ry="11" style="stroke: #A80036; stroke-width: 1.0;"/><path d="M69.5731,212.1431 Q68.9921,212.4419 68.3529,212.5913 Q67.7138,212.7407 67.0082,212.7407 Q64.5014,212.7407 63.1815,211.0889 Q61.8617,209.437 61.8617,206.3159 Q61.8617,203.1865 63.1815,201.5347 Q64.5014,199.8828 67.0082,199.8828 Q67.7138,199.8828 68.3612,200.0322 Q69.0087,200.1816 69.5731,200.4805 L69.5731,203.2031 Q68.9423,202.6221 68.3488,202.3523 Q67.7553,202.0825 67.1244,202.0825 Q65.7797,202.0825 65.0949,203.1492 Q64.4101,204.2158 64.4101,206.3159 Q64.4101,208.4077 65.0949,209.4744 Q65.7797,210.541 67.1244,210.541 Q67.7553,210.541 68.3488,210.2712 Q68.9423,210.0015 69.5731,209.4204 Z "/><text fill="#000000" font-family="sans-serif" font-size="12" lengthAdjust="spacingAndGlyphs" textLength="74" x="82.9" y="210.5352">NamedValue</text><line style="stroke: #A80036; stroke-width: 1.5;" x1="45" x2="167" y1="222" y2="222"/><ellipse cx="55" cy="233.9775" fill="none" rx="3" ry="3" style="stroke: #038048; stroke-width: 1.0;"/><text fill="#000000" font-family="sans-serif" font-size="11" lengthAdjust="spacingAndGlyphs" textLength="67" x="64" y="236.6348">name: String</text><ellipse cx="55" cy="246.9326" fill="none" rx="3" ry="3" style="stroke: #038048; stroke-width: 1.0;"/><text fill="#000000" font-family="sans-serif" font-size="11" lengthAdjust="spacingAndGlyphs" textLength="98" x="64" y="249.5898">expression: String</text><line style="stroke: #A80036; stroke-width: 1.5;" x1="45" x2="167" y1="255.9102" y2="255.9102"/><!--class NamedParam--><rect fill="#FEFECE" filter="url(#f17uef6kx88x69)" height="86.8652" id="NamedParam" style="stroke: #A80036; stroke-width: 1.5;" width="154" x="29" y="67.5"/><ellipse cx="63.35" cy="83.5" fill="#ADD1B2" rx="11" ry="11" style="stroke: #A80036; stroke-width: 1.0;"/><path d="M65.8231,89.6431 Q65.2421,89.9419 64.6029,90.0913 Q63.9638,90.2407 63.2582,90.2407 Q60.7514,90.2407 59.4315,88.5889 Q58.1117,86.937 58.1117,83.8159 Q58.1117,80.6865 59.4315,79.0347 Q60.7514,77.3828 63.2582,77.3828 Q63.9638,77.3828 64.6112,77.5322 Q65.2587,77.6816 65.8231,77.9805 L65.8231,80.7031 Q65.1923,80.1221 64.5988,79.8523 Q64.0053,79.5825 63.3744,79.5825 Q62.0297,79.5825 61.3449,80.6492 Q60.6601,81.7158 60.6601,83.8159 Q60.6601,85.9077 61.3449,86.9744 Q62.0297,88.041 63.3744,88.041 Q64.0053,88.041 64.5988,87.7712 Q65.1923,87.5015 65.8231,86.9204 Z "/><text fill="#000000" font-family="sans-serif" font-size="12" lengthAdjust="spacingAndGlyphs" textLength="79" x="81.65" y="88.0352">NamedParam</text><line style="stroke: #A80036; stroke-width: 1.5;" x1="30" x2="182" y1="99.5" y2="99.5"/><ellipse cx="40" cy="111.4775" fill="none" rx="3" ry="3" style="stroke: #038048; stroke-width: 1.0;"/><text fill="#000000" font-family="sans-serif" font-size="11" lengthAdjust="spacingAndGlyphs" textLength="67" x="49" y="114.1348">name: String</text><ellipse cx="40" cy="124.4326" fill="none" rx="3" ry="3" style="stroke: #038048; stroke-width: 1.0;"/><text fill="#000000" font-family="sans-serif" font-size="11" lengthAdjust="spacingAndGlyphs" textLength="61" x="49" y="127.0898">type: String</text><ellipse cx="40" cy="137.3877" fill="none" rx="3" ry="3" style="stroke: #038048; stroke-width: 1.0;"/><text fill="#000000" font-family="sans-serif" font-size="11" lengthAdjust="spacingAndGlyphs" textLength="128" x="49" y="140.0449">{opt} description: String</text><line style="stroke: #A80036; stroke-width: 1.5;" x1="30" x2="182" y1="146.3652" y2="146.3652"/><!--link Query to Entity--><path d="M206.0015,375 C249.6742,375 301.2149,375 346.772,375 " fill="none" id="Query-Entity" style="stroke: #A80036; stroke-width: 1.0;"/><text fill="#000000" font-family="sans-serif" font-size="13" lengthAdjust="spacingAndGlyphs" textLength="79" x="237" y="371.5684">result_entity</text><text fill="#000000" font-family="sans-serif" font-size="13" lengthAdjust="spacingAndGlyphs" textLength="24" x="314.8362" y="388.0222">0..1</text><!--link Entity to Query--><path d="M333.7225,398.5601 C301.7638,401.7462 267.6675,403.0173 236,400 C226.2763,399.0735 216.1982,397.7656 206.1513,396.2285 " fill="none" id="Entity-Query" style="stroke: #A80036; stroke-width: 1.0;"/><polygon fill="#A80036" points="346.7983,397.1404,340.4015,393.8115,334.8684,398.4359,341.2652,401.7648,346.7983,397.1404" style="stroke: #A80036; stroke-width: 1.0;"/><text fill="#000000" font-family="sans-serif" font-size="13" lengthAdjust="spacingAndGlyphs" textLength="46" x="253.5" y="396.5684">queries</text><text fill="#000000" font-family="sans-serif" font-size="13" lengthAdjust="spacingAndGlyphs" textLength="6" x="214.0488" y="411.022">*</text><!--link Entity to Property--><path d="M594.659,295.9148 C643.9828,265.8299 699.4125,232.0207 745.7312,203.7687 " fill="none" id="Entity-Property" style="stroke: #A80036; stroke-width: 1.0;"/><polygon fill="#A80036" points="583.2511,302.873,590.4563,303.1635,593.4957,296.6242,586.2905,296.3337,583.2511,302.873" style="stroke: #A80036; stroke-width: 1.0;"/><text fill="#000000" font-family="sans-serif" font-size="13" lengthAdjust="spacingAndGlyphs" textLength="64" x="632.5" y="221.5684">properties</text><text fill="#000000" font-family="sans-serif" font-size="13" lengthAdjust="spacingAndGlyphs" textLength="6" x="732.074" y="221.4267">*</text><!--link Entity to Relationship--><path d="M596.2778,394.5886 C648.1108,402.3228 706.4682,411.0306 753.8314,418.0979 " fill="none" id="Entity-Relationship" style="stroke: #A80036; stroke-width: 1.0;"/><polygon fill="#A80036" points="583.2511,392.6448,588.5951,397.4865,595.1197,394.4158,589.7757,389.5741,583.2511,392.6448" style="stroke: #A80036; stroke-width: 1.0;"/><text fill="#000000" font-family="sans-serif" font-size="13" lengthAdjust="spacingAndGlyphs" textLength="82" x="623.5" y="394.5684">relationships</text><text fill="#000000" font-family="sans-serif" font-size="13" lengthAdjust="spacingAndGlyphs" textLength="6" x="739.8674" y="430.1354">*</text><!--link Relationship to Entity--><path d="M753.9512,442.5631 C710.7115,445.1901 658.8357,445.0756 613,436 C603.1857,434.0567 593.2048,431.4537 583.2984,428.4149 " fill="none" id="Relationship-Entity" style="stroke: #A80036; stroke-width: 1.0;"/><text fill="#000000" font-family="sans-serif" font-size="13" lengthAdjust="spacingAndGlyphs" textLength="101" x="614" y="432.5684">reference_entity</text><text fill="#000000" font-family="sans-serif" font-size="13" lengthAdjust="spacingAndGlyphs" textLength="8" x="591.1331" y="444.8822">1</text><!--link Entity to Entity--><path d="M448.2488,266.8086 C450.2825,246.4016 455.8662,232 465,232 C474.1338,232 479.7175,246.4016 481.7512,266.8086 " fill="none" id="Entity-Entity" style="stroke: #A80036; stroke-width: 1.0;"/><text fill="#000000" font-family="sans-serif" font-size="13" lengthAdjust="spacingAndGlyphs" textLength="62" x="434" y="223.5684">supertype</text><text fill="#000000" font-family="sans-serif" font-size="13" lengthAdjust="spacingAndGlyphs" textLength="24" x="458.0853" y="256.2387">0..1</text><!--link Entity to Entity--><path d="M429.7764,266.8082 C429.1162,228.3112 440.8574,197 465,197 C489.1426,197 500.8838,228.3112 500.2236,266.8082 " fill="none" id="Entity-Entity-1" style="stroke: #A80036; stroke-width: 1.0;"/><text fill="#000000" font-family="sans-serif" font-size="13" lengthAdjust="spacingAndGlyphs" textLength="57" x="436.5" y="188.5684">subtypes</text><text fill="#000000" font-family="sans-serif" font-size="13" lengthAdjust="spacingAndGlyphs" textLength="6" x="496.4893" y="256.2383">*</text><!--link Property to ValueDomain--><path d="M961.0224,139.5653 C1040.5991,138.1818 1149.2756,136.9216 1245,138 C1280.9074,138.4045 1320.8931,139.2693 1353.8088,140.0916 " fill="none" id="Property-ValueDomain" style="stroke: #A80036; stroke-width: 1.0;"/><polygon fill="#A80036" points="948.0101,139.7971,954.0804,143.6895,960.0082,139.5832,953.9378,135.6908,948.0101,139.7971" style="stroke: #A80036; stroke-width: 1.0;"/><text fill="#000000" font-family="sans-serif" font-size="13" lengthAdjust="spacingAndGlyphs" textLength="47" x="1144.5" y="134.5684">domain</text><text fill="#000000" font-family="sans-serif" font-size="13" lengthAdjust="spacingAndGlyphs" textLength="24" x="1322.1179" y="153.2098">0..1</text><!--link Property to ValueDomainType--><path d="M948.1258,159.9569 C994.2527,168.1477 1047.9959,177.6909 1090.8022,185.292 " fill="none" id="Property-ValueDomainType" style="stroke: #A80036; stroke-width: 1.0;"/><text fill="#000000" font-family="sans-serif" font-size="13" lengthAdjust="spacingAndGlyphs" textLength="81" x="979" y="162.5684">domain_type</text><text fill="#000000" font-family="sans-serif" font-size="13" lengthAdjust="spacingAndGlyphs" textLength="24" x="1059.1368" y="197.346">0..1</text><!--link Relationship to PropertyMapping--><path d="M953.4719,432 C998.7215,432 1050.4572,432 1091.7844,432 " fill="none" id="Relationship-PropertyMapping" style="stroke: #A80036; stroke-width: 1.0;"/><polygon fill="#A80036" points="940.2777,432,946.2777,436,952.2777,432,946.2777,428,940.2777,432" style="stroke: #A80036; stroke-width: 1.0;"/><text fill="#000000" font-family="sans-serif" font-size="13" lengthAdjust="spacingAndGlyphs" textLength="62" x="988.5" y="428.5684">mappings</text><text fill="#000000" font-family="sans-serif" font-size="13" lengthAdjust="spacingAndGlyphs" textLength="6" x="1077.9866" y="445.3286">*</text><!--link ValueDomainType to ValueDomain--><path d="M1257.8828,178.8691 C1289.4515,171.7987 1324.3871,163.9742 1353.9233,157.359 " fill="none" id="ValueDomainType-ValueDomain" style="stroke: #A80036; stroke-width: 1.0;"/><polygon fill="#A80036" points="1245.049,181.7434,1251.7782,184.3353,1256.7589,179.1207,1250.0297,176.5287,1245.049,181.7434" style="stroke: #A80036; stroke-width: 1.0;"/><text fill="#000000" font-family="sans-serif" font-size="13" lengthAdjust="spacingAndGlyphs" textLength="47" x="1276" y="162.5684">domain</text><text fill="#000000" font-family="sans-serif" font-size="13" lengthAdjust="spacingAndGlyphs" textLength="8" x="1337.9852" y="172.447">1</text><!--link ValueDomain to ValueItem--><path d="M1504.7191,142 C1535.6013,142 1570.5676,142 1600.9619,142 " fill="none" id="ValueDomain-ValueItem" style="stroke: #A80036; stroke-width: 1.0;"/><polygon fill="#A80036" points="1491.3054,142,1497.3054,146,1503.3054,142,1497.3054,138,1491.3054,142" style="stroke: #A80036; stroke-width: 1.0;"/><text fill="#000000" font-family="sans-serif" font-size="13" lengthAdjust="spacingAndGlyphs" textLength="48" x="1522" y="138.5684">choices</text><text fill="#000000" font-family="sans-serif" font-size="13" lengthAdjust="spacingAndGlyphs" textLength="6" x="1587.0831" y="155.3286">*</text><!--
@startuml
left to right direction

class Query {
  + name: String
  + {opt} identifier: String
  + {opt} type: String
  + {opt} result_entity_name: String?
  + {opt} description: String
  + {opt} cardinality: String
  + snippet: String
  + {get} oneliner: Boolean
}






Query - - "0..1" Entity : result_entity



class Entity {
  + {PK}  name: String
  + {PK}  namespace: String
  + {opt} identifier: String
  + {opt} description: String
  + {opt} value_object: Boolean
  + {get} class_name: String
  + {opt} subtype_of: String?
  + {opt} subtype_key_value: String
  + {get} inherited: Boolean
  + {get} top_level: Boolean
  + {get} supports_namespace: Boolean
  + {get} fqn: String
  + {get} primary_key_names: List<String>
}






Entity *- - "*" Property : properties






Entity *- - "*" Relationship : relationships






Entity - - "0..1" Entity : supertype






Entity - - "*" Entity : subtypes






Entity *- - "*" Query : queries



class Property {
  + {PK}  name: String
  + {opt} identifier: String
  + {opt} primary_key: Boolean
  + {opt} subtype_key: Boolean
  + type: String
  + {opt} domain_type_name: String?
  + {opt} size: Int
  + {opt} optional: Boolean
  + {opt} description: String
  + {opt} default_value: String?
  + {opt} example_value: String
  + {opt} table_column_name: String
  + {opt} snippet: String?
  + {opt} multiple: Boolean
  + {get} property_name: String
  + {get} class_name: String
  + {get} nullable: Boolean
}






Property *- - "0..1" ValueDomain : domain






Property - - "0..1" ValueDomainType : domain_type



class Relationship {
  + {PK}  name: String
  + {opt} identifier: String
  + cardinality: String
  + reference_entity_name: String
  + {opt} aggregate: Boolean
  + {opt} inherited: Boolean
  + {opt} description: String
  + {opt} snippet: String?
  + {get} class_name: String
  + {get} multiple: Boolean
  + {get} allows_empty: Boolean
  + {get} nullable: Boolean
  + {get} property_name: String
  + {get} bidirectional: Boolean
  + {get} recursive: Boolean
}






Relationship *- - "*" PropertyMapping : mappings






Relationship - - "1" Entity : reference_entity



class ValueDomainType {
  + name: String
  + type: String
  + {opt} description: String
}






ValueDomainType *- - "1" ValueDomain : domain



class ValueDomain {
  + {opt} pattern: String?
}






ValueDomain *- - "*" ValueItem : choices



class ValueItem {
  + value: String
  + {opt} label: String
  + {opt} description: String
}



class PropertyMapping {
  + from: String
  + to: String
  + {opt} null_value: String?
}



class NamedValue {
  + name: String
  + expression: String
}



class NamedParam {
  + name: String
  + type: String
  + {opt} description: String
}



@enduml

PlantUML version 1.2019.05(Sun Apr 21 01:45:36 JST 2019)
(GPL source distribution)
Java Runtime: OpenJDK Runtime Environment
JVM: OpenJDK 64-Bit Server VM
Java Version: 1.8.0_172-b01
Operating System: Mac OS X
OS Version: 10.14.4
Default Encoding: UTF-8
Language: en
Country: JP
--></g></svg>