<?xml version="1.0" encoding="UTF-8" standalone="no"?><svg xmlns="http://www.w3.org/2000/svg" xmlns:xlink="http://www.w3.org/1999/xlink" contentScriptType="application/ecmascript" contentStyleType="text/css" height="552px" preserveAspectRatio="none" style="width:1766px;height:552px;" version="1.1" viewBox="0 0 1766 552" width="1766px" zoomAndPan="magnify"><defs><filter height="300%" id="f1io3qioqyyo9b" width="300%" x="-1" y="-1"><feGaussianBlur result="blurOut" stdDeviation="2.0"/><feColorMatrix in="blurOut" result="blurOut2" type="matrix" values="0 0 0 0 0 0 0 0 0 0 0 0 0 0 0 0 0 0 .4 0"/><feOffset dx="4.0" dy="4.0" in="blurOut2" result="blurOut3"/><feBlend in="SourceGraphic" in2="blurOut3" mode="normal"/></filter></defs><g><!--class Query--><rect fill="#FEFECE" filter="url(#f1io3qioqyyo9b)" height="151.6406" id="Query" style="stroke: #A80036; stroke-width: 1.5;" width="200" x="6" y="287"/><ellipse cx="84.75" cy="303" fill="#ADD1B2" rx="11" ry="11" style="stroke: #A80036; stroke-width: 1.0;"/><path d="M87.2231,309.1431 Q86.6421,309.4419 86.0029,309.5913 Q85.3638,309.7407 84.6582,309.7407 Q82.1514,309.7407 80.8315,308.0889 Q79.5117,306.437 79.5117,303.3159 Q79.5117,300.1865 80.8315,298.5347 Q82.1514,296.8828 84.6582,296.8828 Q85.3638,296.8828 86.0112,297.0322 Q86.6587,297.1816 87.2231,297.4805 L87.2231,300.2031 Q86.5923,299.6221 85.9988,299.3523 Q85.4053,299.0825 84.7744,299.0825 Q83.4297,299.0825 82.7449,300.1492 Q82.0601,301.2158 82.0601,303.3159 Q82.0601,305.4077 82.7449,306.4744 Q83.4297,307.541 84.7744,307.541 Q85.4053,307.541 85.9988,307.2712 Q86.5923,307.0015 87.2231,306.4204 Z "/><text fill="#000000" font-family="sans-serif" font-size="12" lengthAdjust="spacingAndGlyphs" textLength="34" x="105.25" y="307.5352">Query</text><line style="stroke: #A80036; stroke-width: 1.5;" x1="7" x2="205" y1="319" y2="319"/><ellipse cx="17" cy="330.9775" fill="none" rx="3" ry="3" style="stroke: #038048; stroke-width: 1.0;"/><text fill="#000000" font-family="sans-serif" font-size="11" lengthAdjust="spacingAndGlyphs" textLength="67" x="26" y="333.6348">name: String</text><ellipse cx="17" cy="343.9326" fill="none" rx="3" ry="3" style="stroke: #038048; stroke-width: 1.0;"/><text fill="#000000" font-family="sans-serif" font-size="11" lengthAdjust="spacingAndGlyphs" textLength="115" x="26" y="346.5898">{opt} identifier: String</text><ellipse cx="17" cy="356.8877" fill="none" rx="3" ry="3" style="stroke: #038048; stroke-width: 1.0;"/><text fill="#000000" font-family="sans-serif" font-size="11" lengthAdjust="spacingAndGlyphs" textLength="90" x="26" y="359.5449">{opt} type: String</text><ellipse cx="17" cy="369.8428" fill="none" rx="3" ry="3" style="stroke: #038048; stroke-width: 1.0;"/><text fill="#000000" font-family="sans-serif" font-size="11" lengthAdjust="spacingAndGlyphs" textLength="174" x="26" y="372.5">{opt} result_entity_name: String?</text><ellipse cx="17" cy="382.7979" fill="none" rx="3" ry="3" style="stroke: #038048; stroke-width: 1.0;"/><text fill="#000000" font-family="sans-serif" font-size="11" lengthAdjust="spacingAndGlyphs" textLength="128" x="26" y="385.4551">{opt} description: String</text><ellipse cx="17" cy="395.7529" fill="none" rx="3" ry="3" style="stroke: #038048; stroke-width: 1.0;"/><text fill="#000000" font-family="sans-serif" font-size="11" lengthAdjust="spacingAndGlyphs" textLength="123" x="26" y="398.4102">{opt} cardinality: String</text><ellipse cx="17" cy="408.708" fill="none" rx="3" ry="3" style="stroke: #038048; stroke-width: 1.0;"/><text fill="#000000" font-family="sans-serif" font-size="11" lengthAdjust="spacingAndGlyphs" textLength="78" x="26" y="411.3652">snippet: String</text><ellipse cx="17" cy="421.6631" fill="none" rx="3" ry="3" style="stroke: #038048; stroke-width: 1.0;"/><text fill="#000000" font-family="sans-serif" font-size="11" lengthAdjust="spacingAndGlyphs" textLength="120" x="26" y="424.3203">{get} oneliner: Boolean</text><line style="stroke: #A80036; stroke-width: 1.5;" x1="7" x2="205" y1="430.6406" y2="430.6406"/><!--class Entity--><rect fill="#FEFECE" filter="url(#f1io3qioqyyo9b)" height="190.5059" id="Entity" style="stroke: #A80036; stroke-width: 1.5;" width="236" x="347" y="267.5"/><ellipse cx="445.25" cy="283.5" fill="#ADD1B2" rx="11" ry="11" style="stroke: #A80036; stroke-width: 1.0;"/><path d="M447.7231,289.6431 Q447.1421,289.9419 446.5029,290.0913 Q445.8638,290.2407 445.1582,290.2407 Q442.6514,290.2407 441.3315,288.5889 Q440.0117,286.937 440.0117,283.8159 Q440.0117,280.6865 441.3315,279.0347 Q442.6514,277.3828 445.1582,277.3828 Q445.8638,277.3828 446.5112,277.5322 Q447.1587,277.6816 447.7231,277.9805 L447.7231,280.7031 Q447.0923,280.1221 446.4988,279.8523 Q445.9053,279.5825 445.2744,279.5825 Q443.9297,279.5825 443.2449,280.6492 Q442.5601,281.7158 442.5601,283.8159 Q442.5601,285.9077 443.2449,286.9744 Q443.9297,288.041 445.2744,288.041 Q445.9053,288.041 446.4988,287.7712 Q447.0923,287.5015 447.7231,286.9204 Z "/><text fill="#000000" font-family="sans-serif" font-size="12" lengthAdjust="spacingAndGlyphs" textLength="31" x="465.75" y="288.0352">Entity</text><line style="stroke: #A80036; stroke-width: 1.5;" x1="348" x2="582" y1="299.5" y2="299.5"/><ellipse cx="358" cy="311.4775" fill="none" rx="3" ry="3" style="stroke: #038048; stroke-width: 1.0;"/><text fill="#000000" font-family="sans-serif" font-size="11" lengthAdjust="spacingAndGlyphs" textLength="94" x="367" y="314.1348">{PK}  name: String</text><ellipse cx="358" cy="324.4326" fill="none" rx="3" ry="3" style="stroke: #038048; stroke-width: 1.0;"/><text fill="#000000" font-family="sans-serif" font-size="11" lengthAdjust="spacingAndGlyphs" textLength="127" x="367" y="327.0898">{opt} namespace: String</text><ellipse cx="358" cy="337.3877" fill="none" rx="3" ry="3" style="stroke: #038048; stroke-width: 1.0;"/><text fill="#000000" font-family="sans-serif" font-size="11" lengthAdjust="spacingAndGlyphs" textLength="115" x="367" y="340.0449">{opt} identifier: String</text><ellipse cx="358" cy="350.3428" fill="none" rx="3" ry="3" style="stroke: #038048; stroke-width: 1.0;"/><text fill="#000000" font-family="sans-serif" font-size="11" lengthAdjust="spacingAndGlyphs" textLength="128" x="367" y="353">{opt} description: String</text><ellipse cx="358" cy="363.2979" fill="none" rx="3" ry="3" style="stroke: #038048; stroke-width: 1.0;"/><text fill="#000000" font-family="sans-serif" font-size="11" lengthAdjust="spacingAndGlyphs" textLength="144" x="367" y="365.9551">{opt} value_object: Boolean</text><ellipse cx="358" cy="376.2529" fill="none" rx="3" ry="3" style="stroke: #038048; stroke-width: 1.0;"/><text fill="#000000" font-family="sans-serif" font-size="11" lengthAdjust="spacingAndGlyphs" textLength="128" x="367" y="378.9102">{get} class_name: String</text><ellipse cx="358" cy="389.208" fill="none" rx="3" ry="3" style="stroke: #038048; stroke-width: 1.0;"/><text fill="#000000" font-family="sans-serif" font-size="11" lengthAdjust="spacingAndGlyphs" textLength="124" x="367" y="391.8652">{get} inherited: Boolean</text><ellipse cx="358" cy="402.1631" fill="none" rx="3" ry="3" style="stroke: #038048; stroke-width: 1.0;"/><text fill="#000000" font-family="sans-serif" font-size="11" lengthAdjust="spacingAndGlyphs" textLength="124" x="367" y="404.8203">{get} top_level: Boolean</text><ellipse cx="358" cy="415.1182" fill="none" rx="3" ry="3" style="stroke: #038048; stroke-width: 1.0;"/><text fill="#000000" font-family="sans-serif" font-size="11" lengthAdjust="spacingAndGlyphs" textLength="191" x="367" y="417.7754">{get} supports_namespace: Boolean</text><ellipse cx="358" cy="428.0732" fill="none" rx="3" ry="3" style="stroke: #038048; stroke-width: 1.0;"/><text fill="#000000" font-family="sans-serif" font-size="11" lengthAdjust="spacingAndGlyphs" textLength="84" x="367" y="430.7305">{get} fqn: String</text><ellipse cx="358" cy="441.0283" fill="none" rx="3" ry="3" style="stroke: #038048; stroke-width: 1.0;"/><text fill="#000000" font-family="sans-serif" font-size="11" lengthAdjust="spacingAndGlyphs" textLength="210" x="367" y="443.6855">{get} primary_key_names: List&lt;String&gt;</text><line style="stroke: #A80036; stroke-width: 1.5;" x1="348" x2="582" y1="450.0059" y2="450.0059"/><!--class Property--><rect fill="#FEFECE" filter="url(#f1io3qioqyyo9b)" height="255.2813" id="Property" style="stroke: #A80036; stroke-width: 1.5;" width="202" x="746" y="8.5"/><ellipse cx="818.25" cy="24.5" fill="#ADD1B2" rx="11" ry="11" style="stroke: #A80036; stroke-width: 1.0;"/><path d="M820.7231,30.6431 Q820.1421,30.9419 819.5029,31.0913 Q818.8638,31.2407 818.1582,31.2407 Q815.6514,31.2407 814.3315,29.5889 Q813.0117,27.937 813.0117,24.8159 Q813.0117,21.6865 814.3315,20.0347 Q815.6514,18.3828 818.1582,18.3828 Q818.8638,18.3828 819.5112,18.5322 Q820.1587,18.6816 820.7231,18.9805 L820.7231,21.7031 Q820.0923,21.1221 819.4988,20.8523 Q818.9053,20.5825 818.2744,20.5825 Q816.9297,20.5825 816.2449,21.6492 Q815.5601,22.7158 815.5601,24.8159 Q815.5601,26.9077 816.2449,27.9744 Q816.9297,29.041 818.2744,29.041 Q818.9053,29.041 819.4988,28.7712 Q820.0923,28.5015 820.7231,27.9204 Z "/><text fill="#000000" font-family="sans-serif" font-size="12" lengthAdjust="spacingAndGlyphs" textLength="49" x="838.75" y="29.0352">Property</text><line style="stroke: #A80036; stroke-width: 1.5;" x1="747" x2="947" y1="40.5" y2="40.5"/><ellipse cx="757" cy="52.4775" fill="none" rx="3" ry="3" style="stroke: #038048; stroke-width: 1.0;"/><text fill="#000000" font-family="sans-serif" font-size="11" lengthAdjust="spacingAndGlyphs" textLength="67" x="766" y="55.1348">name: String</text><ellipse cx="757" cy="65.4326" fill="none" rx="3" ry="3" style="stroke: #038048; stroke-width: 1.0;"/><text fill="#000000" font-family="sans-serif" font-size="11" lengthAdjust="spacingAndGlyphs" textLength="115" x="766" y="68.0898">{opt} identifier: String</text><ellipse cx="757" cy="78.3877" fill="none" rx="3" ry="3" style="stroke: #038048; stroke-width: 1.0;"/><text fill="#000000" font-family="sans-serif" font-size="11" lengthAdjust="spacingAndGlyphs" textLength="143" x="766" y="81.0449">{opt} primary_key: Boolean</text><ellipse cx="757" cy="91.3428" fill="none" rx="3" ry="3" style="stroke: #038048; stroke-width: 1.0;"/><text fill="#000000" font-family="sans-serif" font-size="11" lengthAdjust="spacingAndGlyphs" textLength="61" x="766" y="94">type: String</text><ellipse cx="757" cy="104.2979" fill="none" rx="3" ry="3" style="stroke: #038048; stroke-width: 1.0;"/><text fill="#000000" font-family="sans-serif" font-size="11" lengthAdjust="spacingAndGlyphs" textLength="176" x="766" y="106.9551">{opt} domain_type_name: String?</text><ellipse cx="757" cy="117.2529" fill="none" rx="3" ry="3" style="stroke: #038048; stroke-width: 1.0;"/><text fill="#000000" font-family="sans-serif" font-size="11" lengthAdjust="spacingAndGlyphs" textLength="70" x="766" y="119.9102">{opt} size: Int</text><ellipse cx="757" cy="130.208" fill="none" rx="3" ry="3" style="stroke: #038048; stroke-width: 1.0;"/><text fill="#000000" font-family="sans-serif" font-size="11" lengthAdjust="spacingAndGlyphs" textLength="121" x="766" y="132.8652">{opt} optional: Boolean</text><ellipse cx="757" cy="143.1631" fill="none" rx="3" ry="3" style="stroke: #038048; stroke-width: 1.0;"/><text fill="#000000" font-family="sans-serif" font-size="11" lengthAdjust="spacingAndGlyphs" textLength="128" x="766" y="145.8203">{opt} description: String</text><ellipse cx="757" cy="156.1182" fill="none" rx="3" ry="3" style="stroke: #038048; stroke-width: 1.0;"/><text fill="#000000" font-family="sans-serif" font-size="11" lengthAdjust="spacingAndGlyphs" textLength="143" x="766" y="158.7754">{opt} default_value: String?</text><ellipse cx="757" cy="169.0732" fill="none" rx="3" ry="3" style="stroke: #038048; stroke-width: 1.0;"/><text fill="#000000" font-family="sans-serif" font-size="11" lengthAdjust="spacingAndGlyphs" textLength="146" x="766" y="171.7305">{opt} example_value: String</text><ellipse cx="757" cy="182.0283" fill="none" rx="3" ry="3" style="stroke: #038048; stroke-width: 1.0;"/><text fill="#000000" font-family="sans-serif" font-size="11" lengthAdjust="spacingAndGlyphs" textLength="174" x="766" y="184.6855">{opt} table_column_name: String</text><ellipse cx="757" cy="194.9834" fill="none" rx="3" ry="3" style="stroke: #038048; stroke-width: 1.0;"/><text fill="#000000" font-family="sans-serif" font-size="11" lengthAdjust="spacingAndGlyphs" textLength="112" x="766" y="197.6406">{opt} snippet: String?</text><ellipse cx="757" cy="207.9385" fill="none" rx="3" ry="3" style="stroke: #038048; stroke-width: 1.0;"/><text fill="#000000" font-family="sans-serif" font-size="11" lengthAdjust="spacingAndGlyphs" textLength="120" x="766" y="210.5957">{opt} multiple: Boolean</text><ellipse cx="757" cy="220.8936" fill="none" rx="3" ry="3" style="stroke: #038048; stroke-width: 1.0;"/><text fill="#000000" font-family="sans-serif" font-size="11" lengthAdjust="spacingAndGlyphs" textLength="148" x="766" y="223.5508">{get} property_name: String</text><ellipse cx="757" cy="233.8486" fill="none" rx="3" ry="3" style="stroke: #038048; stroke-width: 1.0;"/><text fill="#000000" font-family="sans-serif" font-size="11" lengthAdjust="spacingAndGlyphs" textLength="128" x="766" y="236.5059">{get} class_name: String</text><ellipse cx="757" cy="246.8037" fill="none" rx="3" ry="3" style="stroke: #038048; stroke-width: 1.0;"/><text fill="#000000" font-family="sans-serif" font-size="11" lengthAdjust="spacingAndGlyphs" textLength="118" x="766" y="249.4609">{get} nullable: Boolean</text><line style="stroke: #A80036; stroke-width: 1.5;" x1="747" x2="947" y1="255.7813" y2="255.7813"/><!--class Relationship--><rect fill="#FEFECE" filter="url(#f1io3qioqyyo9b)" height="242.3262" id="Relationship" style="stroke: #A80036; stroke-width: 1.5;" width="186" x="754" y="299"/><ellipse cx="807.75" cy="315" fill="#ADD1B2" rx="11" ry="11" style="stroke: #A80036; stroke-width: 1.0;"/><path d="M810.2231,321.1431 Q809.6421,321.4419 809.0029,321.5913 Q808.3638,321.7407 807.6582,321.7407 Q805.1514,321.7407 803.8315,320.0889 Q802.5117,318.437 802.5117,315.3159 Q802.5117,312.1865 803.8315,310.5347 Q805.1514,308.8828 807.6582,308.8828 Q808.3638,308.8828 809.0112,309.0322 Q809.6587,309.1816 810.2231,309.4805 L810.2231,312.2031 Q809.5923,311.6221 808.9988,311.3523 Q808.4053,311.0825 807.7744,311.0825 Q806.4297,311.0825 805.7449,312.1492 Q805.0601,313.2158 805.0601,315.3159 Q805.0601,317.4077 805.7449,318.4744 Q806.4297,319.541 807.7744,319.541 Q808.4053,319.541 808.9988,319.2712 Q809.5923,319.0015 810.2231,318.4204 Z "/><text fill="#000000" font-family="sans-serif" font-size="12" lengthAdjust="spacingAndGlyphs" textLength="70" x="828.25" y="319.5352">Relationship</text><line style="stroke: #A80036; stroke-width: 1.5;" x1="755" x2="939" y1="331" y2="331"/><ellipse cx="765" cy="342.9775" fill="none" rx="3" ry="3" style="stroke: #038048; stroke-width: 1.0;"/><text fill="#000000" font-family="sans-serif" font-size="11" lengthAdjust="spacingAndGlyphs" textLength="67" x="774" y="345.6348">name: String</text><ellipse cx="765" cy="355.9326" fill="none" rx="3" ry="3" style="stroke: #038048; stroke-width: 1.0;"/><text fill="#000000" font-family="sans-serif" font-size="11" lengthAdjust="spacingAndGlyphs" textLength="115" x="774" y="358.5898">{opt} identifier: String</text><ellipse cx="765" cy="368.8877" fill="none" rx="3" ry="3" style="stroke: #038048; stroke-width: 1.0;"/><text fill="#000000" font-family="sans-serif" font-size="11" lengthAdjust="spacingAndGlyphs" textLength="94" x="774" y="371.5449">cardinality: String</text><ellipse cx="765" cy="381.8428" fill="none" rx="3" ry="3" style="stroke: #038048; stroke-width: 1.0;"/><text fill="#000000" font-family="sans-serif" font-size="11" lengthAdjust="spacingAndGlyphs" textLength="160" x="774" y="384.5">reference_entity_name: String</text><ellipse cx="765" cy="394.7979" fill="none" rx="3" ry="3" style="stroke: #038048; stroke-width: 1.0;"/><text fill="#000000" font-family="sans-serif" font-size="11" lengthAdjust="spacingAndGlyphs" textLength="131" x="774" y="397.4551">{opt} aggregate: Boolean</text><ellipse cx="765" cy="407.7529" fill="none" rx="3" ry="3" style="stroke: #038048; stroke-width: 1.0;"/><text fill="#000000" font-family="sans-serif" font-size="11" lengthAdjust="spacingAndGlyphs" textLength="125" x="774" y="410.4102">{opt} inherited: Boolean</text><ellipse cx="765" cy="420.708" fill="none" rx="3" ry="3" style="stroke: #038048; stroke-width: 1.0;"/><text fill="#000000" font-family="sans-serif" font-size="11" lengthAdjust="spacingAndGlyphs" textLength="128" x="774" y="423.3652">{opt} description: String</text><ellipse cx="765" cy="433.6631" fill="none" rx="3" ry="3" style="stroke: #038048; stroke-width: 1.0;"/><text fill="#000000" font-family="sans-serif" font-size="11" lengthAdjust="spacingAndGlyphs" textLength="112" x="774" y="436.3203">{opt} snippet: String?</text><ellipse cx="765" cy="446.6182" fill="none" rx="3" ry="3" style="stroke: #038048; stroke-width: 1.0;"/><text fill="#000000" font-family="sans-serif" font-size="11" lengthAdjust="spacingAndGlyphs" textLength="128" x="774" y="449.2754">{get} class_name: String</text><ellipse cx="765" cy="459.5732" fill="none" rx="3" ry="3" style="stroke: #038048; stroke-width: 1.0;"/><text fill="#000000" font-family="sans-serif" font-size="11" lengthAdjust="spacingAndGlyphs" textLength="119" x="774" y="462.2305">{get} multiple: Boolean</text><ellipse cx="765" cy="472.5283" fill="none" rx="3" ry="3" style="stroke: #038048; stroke-width: 1.0;"/><text fill="#000000" font-family="sans-serif" font-size="11" lengthAdjust="spacingAndGlyphs" textLength="148" x="774" y="475.1855">{get} allows_empty: Boolean</text><ellipse cx="765" cy="485.4834" fill="none" rx="3" ry="3" style="stroke: #038048; stroke-width: 1.0;"/><text fill="#000000" font-family="sans-serif" font-size="11" lengthAdjust="spacingAndGlyphs" textLength="118" x="774" y="488.1406">{get} nullable: Boolean</text><ellipse cx="765" cy="498.4385" fill="none" rx="3" ry="3" style="stroke: #038048; stroke-width: 1.0;"/><text fill="#000000" font-family="sans-serif" font-size="11" lengthAdjust="spacingAndGlyphs" textLength="148" x="774" y="501.0957">{get} property_name: String</text><ellipse cx="765" cy="511.3936" fill="none" rx="3" ry="3" style="stroke: #038048; stroke-width: 1.0;"/><text fill="#000000" font-family="sans-serif" font-size="11" lengthAdjust="spacingAndGlyphs" textLength="143" x="774" y="514.0508">{get} bidirectional: Boolean</text><ellipse cx="765" cy="524.3486" fill="none" rx="3" ry="3" style="stroke: #038048; stroke-width: 1.0;"/><text fill="#000000" font-family="sans-serif" font-size="11" lengthAdjust="spacingAndGlyphs" textLength="126" x="774" y="527.0059">{get} recursive: Boolean</text><line style="stroke: #A80036; stroke-width: 1.5;" x1="755" x2="939" y1="533.3262" y2="533.3262"/><!--class ValueDomain--><rect fill="#FEFECE" filter="url(#f1io3qioqyyo9b)" height="60.9551" id="ValueDomain" style="stroke: #A80036; stroke-width: 1.5;" width="137" x="1354" y="105.5"/><ellipse cx="1382.05" cy="121.5" fill="#ADD1B2" rx="11" ry="11" style="stroke: #A80036; stroke-width: 1.0;"/><path d="M1384.5231,127.6431 Q1383.9421,127.9419 1383.3029,128.0913 Q1382.6638,128.2407 1381.9582,128.2407 Q1379.4514,128.2407 1378.1315,126.5889 Q1376.8117,124.937 1376.8117,121.8159 Q1376.8117,118.6865 1378.1315,117.0347 Q1379.4514,115.3828 1381.9582,115.3828 Q1382.6638,115.3828 1383.3112,115.5322 Q1383.9587,115.6816 1384.5231,115.9805 L1384.5231,118.7031 Q1383.8923,118.1221 1383.2988,117.8523 Q1382.7053,117.5825 1382.0744,117.5825 Q1380.7297,117.5825 1380.0449,118.6492 Q1379.3601,119.7158 1379.3601,121.8159 Q1379.3601,123.9077 1380.0449,124.9744 Q1380.7297,126.041 1382.0744,126.041 Q1382.7053,126.041 1383.2988,125.7712 Q1383.8923,125.5015 1384.5231,124.9204 Z "/><text fill="#000000" font-family="sans-serif" font-size="12" lengthAdjust="spacingAndGlyphs" textLength="76" x="1398.95" y="126.0352">ValueDomain</text><line style="stroke: #A80036; stroke-width: 1.5;" x1="1355" x2="1490" y1="137.5" y2="137.5"/><ellipse cx="1365" cy="149.4775" fill="none" rx="3" ry="3" style="stroke: #038048; stroke-width: 1.0;"/><text fill="#000000" font-family="sans-serif" font-size="11" lengthAdjust="spacingAndGlyphs" textLength="111" x="1374" y="152.1348">{opt} pattern: String?</text><line style="stroke: #A80036; stroke-width: 1.5;" x1="1355" x2="1490" y1="158.4551" y2="158.4551"/><!--class ValueDomainType--><rect fill="#FEFECE" filter="url(#f1io3qioqyyo9b)" height="86.8652" id="ValueDomainType" style="stroke: #A80036; stroke-width: 1.5;" width="154" x="1091" y="149.5"/><ellipse cx="1113.65" cy="165.5" fill="#ADD1B2" rx="11" ry="11" style="stroke: #A80036; stroke-width: 1.0;"/><path d="M1116.1231,171.6431 Q1115.5421,171.9419 1114.9029,172.0913 Q1114.2638,172.2407 1113.5582,172.2407 Q1111.0514,172.2407 1109.7315,170.5889 Q1108.4117,168.937 1108.4117,165.8159 Q1108.4117,162.6865 1109.7315,161.0347 Q1111.0514,159.3828 1113.5582,159.3828 Q1114.2638,159.3828 1114.9112,159.5322 Q1115.5587,159.6816 1116.1231,159.9805 L1116.1231,162.7031 Q1115.4923,162.1221 1114.8988,161.8523 Q1114.3053,161.5825 1113.6744,161.5825 Q1112.3297,161.5825 1111.6449,162.6492 Q1110.9601,163.7158 1110.9601,165.8159 Q1110.9601,167.9077 1111.6449,168.9744 Q1112.3297,170.041 1113.6744,170.041 Q1114.3053,170.041 1114.8988,169.7712 Q1115.4923,169.5015 1116.1231,168.9204 Z "/><text fill="#000000" font-family="sans-serif" font-size="12" lengthAdjust="spacingAndGlyphs" textLength="105" x="1129.35" y="170.0352">ValueDomainType</text><line style="stroke: #A80036; stroke-width: 1.5;" x1="1092" x2="1244" y1="181.5" y2="181.5"/><ellipse cx="1102" cy="193.4775" fill="none" rx="3" ry="3" style="stroke: #038048; stroke-width: 1.0;"/><text fill="#000000" font-family="sans-serif" font-size="11" lengthAdjust="spacingAndGlyphs" textLength="67" x="1111" y="196.1348">name: String</text><ellipse cx="1102" cy="206.4326" fill="none" rx="3" ry="3" style="stroke: #038048; stroke-width: 1.0;"/><text fill="#000000" font-family="sans-serif" font-size="11" lengthAdjust="spacingAndGlyphs" textLength="61" x="1111" y="209.0898">type: String</text><ellipse cx="1102" cy="219.3877" fill="none" rx="3" ry="3" style="stroke: #038048; stroke-width: 1.0;"/><text fill="#000000" font-family="sans-serif" font-size="11" lengthAdjust="spacingAndGlyphs" textLength="128" x="1111" y="222.0449">{opt} description: String</text><line style="stroke: #A80036; stroke-width: 1.5;" x1="1092" x2="1244" y1="228.3652" y2="228.3652"/><!--class PropertyMapping--><rect fill="#FEFECE" filter="url(#f1io3qioqyyo9b)" height="86.8652" id="PropertyMapping" style="stroke: #A80036; stroke-width: 1.5;" width="152" x="1092" y="376.5"/><ellipse cx="1116.45" cy="392.5" fill="#ADD1B2" rx="11" ry="11" style="stroke: #A80036; stroke-width: 1.0;"/><path d="M1118.9231,398.6431 Q1118.3421,398.9419 1117.7029,399.0913 Q1117.0638,399.2407 1116.3582,399.2407 Q1113.8514,399.2407 1112.5315,397.5889 Q1111.2117,395.937 1111.2117,392.8159 Q1111.2117,389.6865 1112.5315,388.0347 Q1113.8514,386.3828 1116.3582,386.3828 Q1117.0638,386.3828 1117.7112,386.5322 Q1118.3587,386.6816 1118.9231,386.9805 L1118.9231,389.7031 Q1118.2923,389.1221 1117.6988,388.8523 Q1117.1053,388.5825 1116.4744,388.5825 Q1115.1297,388.5825 1114.4449,389.6492 Q1113.7601,390.7158 1113.7601,392.8159 Q1113.7601,394.9077 1114.4449,395.9744 Q1115.1297,397.041 1116.4744,397.041 Q1117.1053,397.041 1117.6988,396.7712 Q1118.2923,396.5015 1118.9231,395.9204 Z "/><text fill="#000000" font-family="sans-serif" font-size="12" lengthAdjust="spacingAndGlyphs" textLength="99" x="1132.55" y="397.0352">PropertyMapping</text><line style="stroke: #A80036; stroke-width: 1.5;" x1="1093" x2="1243" y1="408.5" y2="408.5"/><ellipse cx="1103" cy="420.4775" fill="none" rx="3" ry="3" style="stroke: #038048; stroke-width: 1.0;"/><text fill="#000000" font-family="sans-serif" font-size="11" lengthAdjust="spacingAndGlyphs" textLength="64" x="1112" y="423.1348">from: String</text><ellipse cx="1103" cy="433.4326" fill="none" rx="3" ry="3" style="stroke: #038048; stroke-width: 1.0;"/><text fill="#000000" font-family="sans-serif" font-size="11" lengthAdjust="spacingAndGlyphs" textLength="49" x="1112" y="436.0898">to: String</text><ellipse cx="1103" cy="446.3877" fill="none" rx="3" ry="3" style="stroke: #038048; stroke-width: 1.0;"/><text fill="#000000" font-family="sans-serif" font-size="11" lengthAdjust="spacingAndGlyphs" textLength="126" x="1112" y="449.0449">{opt} null_value: String?</text><line style="stroke: #A80036; stroke-width: 1.5;" x1="1093" x2="1243" y1="455.3652" y2="455.3652"/><!--class ValueItem--><rect fill="#FEFECE" filter="url(#f1io3qioqyyo9b)" height="86.8652" id="ValueItem" style="stroke: #A80036; stroke-width: 1.5;" width="154" x="1601" y="92.5"/><ellipse cx="1645.25" cy="108.5" fill="#ADD1B2" rx="11" ry="11" style="stroke: #A80036; stroke-width: 1.0;"/><path d="M1647.7231,114.6431 Q1647.1421,114.9419 1646.5029,115.0913 Q1645.8638,115.2407 1645.1582,115.2407 Q1642.6514,115.2407 1641.3315,113.5889 Q1640.0117,111.937 1640.0117,108.8159 Q1640.0117,105.6865 1641.3315,104.0347 Q1642.6514,102.3828 1645.1582,102.3828 Q1645.8638,102.3828 1646.5112,102.5322 Q1647.1587,102.6816 1647.7231,102.9805 L1647.7231,105.7031 Q1647.0923,105.1221 1646.4988,104.8523 Q1645.9053,104.5825 1645.2744,104.5825 Q1643.9297,104.5825 1643.2449,105.6492 Q1642.5601,106.7158 1642.5601,108.8159 Q1642.5601,110.9077 1643.2449,111.9744 Q1643.9297,113.041 1645.2744,113.041 Q1645.9053,113.041 1646.4988,112.7712 Q1647.0923,112.5015 1647.7231,111.9204 Z "/><text fill="#000000" font-family="sans-serif" font-size="12" lengthAdjust="spacingAndGlyphs" textLength="57" x="1665.75" y="113.0352">ValueItem</text><line style="stroke: #A80036; stroke-width: 1.5;" x1="1602" x2="1754" y1="124.5" y2="124.5"/><ellipse cx="1612" cy="136.4775" fill="none" rx="3" ry="3" style="stroke: #038048; stroke-width: 1.0;"/><text fill="#000000" font-family="sans-serif" font-size="11" lengthAdjust="spacingAndGlyphs" textLength="66" x="1621" y="139.1348">value: String</text><ellipse cx="1612" cy="149.4326" fill="none" rx="3" ry="3" style="stroke: #038048; stroke-width: 1.0;"/><text fill="#000000" font-family="sans-serif" font-size="11" lengthAdjust="spacingAndGlyphs" textLength="92" x="1621" y="152.0898">{opt} label: String</text><ellipse cx="1612" cy="162.3877" fill="none" rx="3" ry="3" style="stroke: #038048; stroke-width: 1.0;"/><text fill="#000000" font-family="sans-serif" font-size="11" lengthAdjust="spacingAndGlyphs" textLength="128" x="1621" y="165.0449">{opt} description: String</text><line style="stroke: #A80036; stroke-width: 1.5;" x1="1602" x2="1754" y1="171.3652" y2="171.3652"/><!--class NamedValue--><rect fill="#FEFECE" filter="url(#f1io3qioqyyo9b)" height="73.9102" id="NamedValue" style="stroke: #A80036; stroke-width: 1.5;" width="124" x="44" y="178"/><ellipse cx="67.1" cy="194" fill="#ADD1B2" rx="11" ry="11" style="stroke: #A80036; stroke-width: 1.0;"/><path d="M69.5731,200.1431 Q68.9921,200.4419 68.3529,200.5913 Q67.7138,200.7407 67.0082,200.7407 Q64.5014,200.7407 63.1815,199.0889 Q61.8617,197.437 61.8617,194.3159 Q61.8617,191.1865 63.1815,189.5347 Q64.5014,187.8828 67.0082,187.8828 Q67.7138,187.8828 68.3612,188.0322 Q69.0087,188.1816 69.5731,188.4805 L69.5731,191.2031 Q68.9423,190.6221 68.3488,190.3523 Q67.7553,190.0825 67.1244,190.0825 Q65.7797,190.0825 65.0949,191.1492 Q64.4101,192.2158 64.4101,194.3159 Q64.4101,196.4077 65.0949,197.4744 Q65.7797,198.541 67.1244,198.541 Q67.7553,198.541 68.3488,198.2712 Q68.9423,198.0015 69.5731,197.4204 Z "/><text fill="#000000" font-family="sans-serif" font-size="12" lengthAdjust="spacingAndGlyphs" textLength="74" x="82.9" y="198.5352">NamedValue</text><line style="stroke: #A80036; stroke-width: 1.5;" x1="45" x2="167" y1="210" y2="210"/><ellipse cx="55" cy="221.9775" fill="none" rx="3" ry="3" style="stroke: #038048; stroke-width: 1.0;"/><text fill="#000000" font-family="sans-serif" font-size="11" lengthAdjust="spacingAndGlyphs" textLength="67" x="64" y="224.6348">name: String</text><ellipse cx="55" cy="234.9326" fill="none" rx="3" ry="3" style="stroke: #038048; stroke-width: 1.0;"/><text fill="#000000" font-family="sans-serif" font-size="11" lengthAdjust="spacingAndGlyphs" textLength="98" x="64" y="237.5898">expression: String</text><line style="stroke: #A80036; stroke-width: 1.5;" x1="45" x2="167" y1="243.9102" y2="243.9102"/><!--class NamedParam--><rect fill="#FEFECE" filter="url(#f1io3qioqyyo9b)" height="86.8652" id="NamedParam" style="stroke: #A80036; stroke-width: 1.5;" width="154" x="29" y="55.5"/><ellipse cx="63.35" cy="71.5" fill="#ADD1B2" rx="11" ry="11" style="stroke: #A80036; stroke-width: 1.0;"/><path d="M65.8231,77.6431 Q65.2421,77.9419 64.6029,78.0913 Q63.9638,78.2407 63.2582,78.2407 Q60.7514,78.2407 59.4315,76.5889 Q58.1117,74.937 58.1117,71.8159 Q58.1117,68.6865 59.4315,67.0347 Q60.7514,65.3828 63.2582,65.3828 Q63.9638,65.3828 64.6112,65.5322 Q65.2587,65.6816 65.8231,65.9805 L65.8231,68.7031 Q65.1923,68.1221 64.5988,67.8523 Q64.0053,67.5825 63.3744,67.5825 Q62.0297,67.5825 61.3449,68.6492 Q60.6601,69.7158 60.6601,71.8159 Q60.6601,73.9077 61.3449,74.9744 Q62.0297,76.041 63.3744,76.041 Q64.0053,76.041 64.5988,75.7712 Q65.1923,75.5015 65.8231,74.9204 Z "/><text fill="#000000" font-family="sans-serif" font-size="12" lengthAdjust="spacingAndGlyphs" textLength="79" x="81.65" y="76.0352">NamedParam</text><line style="stroke: #A80036; stroke-width: 1.5;" x1="30" x2="182" y1="87.5" y2="87.5"/><ellipse cx="40" cy="99.4775" fill="none" rx="3" ry="3" style="stroke: #038048; stroke-width: 1.0;"/><text fill="#000000" font-family="sans-serif" font-size="11" lengthAdjust="spacingAndGlyphs" textLength="67" x="49" y="102.1348">name: String</text><ellipse cx="40" cy="112.4326" fill="none" rx="3" ry="3" style="stroke: #038048; stroke-width: 1.0;"/><text fill="#000000" font-family="sans-serif" font-size="11" lengthAdjust="spacingAndGlyphs" textLength="61" x="49" y="115.0898">type: String</text><ellipse cx="40" cy="125.3877" fill="none" rx="3" ry="3" style="stroke: #038048; stroke-width: 1.0;"/><text fill="#000000" font-family="sans-serif" font-size="11" lengthAdjust="spacingAndGlyphs" textLength="128" x="49" y="128.0449">{opt} description: String</text><line style="stroke: #A80036; stroke-width: 1.5;" x1="30" x2="182" y1="134.3652" y2="134.3652"/><!--link Query to Entity--><path d="M206.0015,363 C249.6742,363 301.2149,363 346.772,363 " fill="none" id="Query-Entity" style="stroke: #A80036; stroke-width: 1.0;"/><text fill="#000000" font-family="sans-serif" font-size="13" lengthAdjust="spacingAndGlyphs" textLength="79" x="237" y="359.5684">result_entity</text><text fill="#000000" font-family="sans-serif" font-size="13" lengthAdjust="spacingAndGlyphs" textLength="24" x="314.8362" y="376.0499">0..1</text><!--link Entity to Query--><path d="M333.7225,386.5601 C301.7638,389.7462 267.6675,391.0173 236,388 C226.2763,387.0735 216.1982,385.7656 206.1513,384.2285 " fill="none" id="Entity-Query" style="stroke: #A80036; stroke-width: 1.0;"/><polygon fill="#A80036" points="346.7983,385.1404,340.4015,381.8115,334.8684,386.4359,341.2652,389.7648,346.7983,385.1404" style="stroke: #A80036; stroke-width: 1.0;"/><text fill="#000000" font-family="sans-serif" font-size="13" lengthAdjust="spacingAndGlyphs" textLength="46" x="253.5" y="384.5684">queries</text><text fill="#000000" font-family="sans-serif" font-size="13" lengthAdjust="spacingAndGlyphs" textLength="6" x="214.0488" y="399.022">*</text><!--link Entity to Property--><path d="M594.659,285.9513 C643.9828,256.6411 699.4125,223.7025 745.7312,196.178 " fill="none" id="Entity-Property" style="stroke: #A80036; stroke-width: 1.0;"/><polygon fill="#A80036" points="583.2511,292.7304,590.4525,293.104,593.5672,286.6002,586.3657,286.2266,583.2511,292.7304" style="stroke: #A80036; stroke-width: 1.0;"/><text fill="#000000" font-family="sans-serif" font-size="13" lengthAdjust="spacingAndGlyphs" textLength="64" x="632.5" y="212.5684">properties</text><text fill="#000000" font-family="sans-serif" font-size="13" lengthAdjust="spacingAndGlyphs" textLength="22" x="715.8373" y="213.506">1..*</text><!--link Entity to Relationship--><path d="M596.2778,382.5886 C648.1108,390.3228 706.4682,399.0306 753.8314,406.0979 " fill="none" id="Entity-Relationship" style="stroke: #A80036; stroke-width: 1.0;"/><polygon fill="#A80036" points="583.2511,380.6448,588.5951,385.4865,595.1197,382.4158,589.7757,377.5741,583.2511,380.6448" style="stroke: #A80036; stroke-width: 1.0;"/><text fill="#000000" font-family="sans-serif" font-size="13" lengthAdjust="spacingAndGlyphs" textLength="82" x="623.5" y="382.5684">relationships</text><text fill="#000000" font-family="sans-serif" font-size="13" lengthAdjust="spacingAndGlyphs" textLength="6" x="739.8674" y="418.1354">*</text><!--link Relationship to Entity--><path d="M753.9512,430.5631 C710.7115,433.1901 658.8357,433.0756 613,424 C603.1857,422.0567 593.2048,419.4537 583.2984,416.4149 " fill="none" id="Relationship-Entity" style="stroke: #A80036; stroke-width: 1.0;"/><text fill="#000000" font-family="sans-serif" font-size="13" lengthAdjust="spacingAndGlyphs" textLength="101" x="614" y="420.5684">reference_entity</text><text fill="#000000" font-family="sans-serif" font-size="13" lengthAdjust="spacingAndGlyphs" textLength="8" x="591.1331" y="432.9114">1</text><!--link Property to ValueDomain--><path d="M961.0224,133.5653 C1040.5991,132.1818 1149.2756,130.9216 1245,132 C1280.9074,132.4045 1320.8931,133.2693 1353.8088,134.0916 " fill="none" id="Property-ValueDomain" style="stroke: #A80036; stroke-width: 1.0;"/><polygon fill="#A80036" points="948.0101,133.7971,954.0804,137.6895,960.0082,133.5832,953.9378,129.6908,948.0101,133.7971" style="stroke: #A80036; stroke-width: 1.0;"/><text fill="#000000" font-family="sans-serif" font-size="13" lengthAdjust="spacingAndGlyphs" textLength="47" x="1144.5" y="128.5684">domain</text><text fill="#000000" font-family="sans-serif" font-size="13" lengthAdjust="spacingAndGlyphs" textLength="24" x="1322.1179" y="147.2098">0..1</text><!--link Property to ValueDomainType--><path d="M948.1258,153.9569 C994.2527,162.1477 1047.9959,171.6909 1090.8022,179.292 " fill="none" id="Property-ValueDomainType" style="stroke: #A80036; stroke-width: 1.0;"/><text fill="#000000" font-family="sans-serif" font-size="13" lengthAdjust="spacingAndGlyphs" textLength="81" x="979" y="156.5684">domain_type</text><text fill="#000000" font-family="sans-serif" font-size="13" lengthAdjust="spacingAndGlyphs" textLength="24" x="1059.1368" y="191.346">0..1</text><!--link Relationship to PropertyMapping--><path d="M953.4719,420 C998.7215,420 1050.4572,420 1091.7844,420 " fill="none" id="Relationship-PropertyMapping" style="stroke: #A80036; stroke-width: 1.0;"/><polygon fill="#A80036" points="940.2777,420,946.2777,424,952.2777,420,946.2777,416,940.2777,420" style="stroke: #A80036; stroke-width: 1.0;"/><text fill="#000000" font-family="sans-serif" font-size="13" lengthAdjust="spacingAndGlyphs" textLength="62" x="988.5" y="416.5684">mappings</text><text fill="#000000" font-family="sans-serif" font-size="13" lengthAdjust="spacingAndGlyphs" textLength="6" x="1077.9866" y="433.3286">*</text><!--link ValueDomainType to ValueDomain--><path d="M1257.8828,172.8691 C1289.4515,165.7987 1324.3871,157.9742 1353.9233,151.359 " fill="none" id="ValueDomainType-ValueDomain" style="stroke: #A80036; stroke-width: 1.0;"/><polygon fill="#A80036" points="1245.049,175.7434,1251.7782,178.3353,1256.7589,173.1207,1250.0297,170.5287,1245.049,175.7434" style="stroke: #A80036; stroke-width: 1.0;"/><text fill="#000000" font-family="sans-serif" font-size="13" lengthAdjust="spacingAndGlyphs" textLength="47" x="1276" y="156.5684">domain</text><text fill="#000000" font-family="sans-serif" font-size="13" lengthAdjust="spacingAndGlyphs" textLength="8" x="1337.9852" y="166.447">1</text><!--link ValueDomain to ValueItem--><path d="M1504.7191,136 C1535.6013,136 1570.5676,136 1600.9619,136 " fill="none" id="ValueDomain-ValueItem" style="stroke: #A80036; stroke-width: 1.0;"/><polygon fill="#A80036" points="1491.3054,136,1497.3054,140,1503.3054,136,1497.3054,132,1491.3054,136" style="stroke: #A80036; stroke-width: 1.0;"/><text fill="#000000" font-family="sans-serif" font-size="13" lengthAdjust="spacingAndGlyphs" textLength="48" x="1522" y="132.5684">choices</text><text fill="#000000" font-family="sans-serif" font-size="13" lengthAdjust="spacingAndGlyphs" textLength="6" x="1587.0831" y="149.3286">*</text><!--
@startuml
left to right direction

class Query {
  + name: String
  + {opt} identifier: String
  + {opt} type: String
  + {opt} result_entity_name: String?
  + {opt} description: String
  + {opt} cardinality: String
  + snippet: String
  + {get} oneliner: Boolean
}





Query - - "0..1" Entity : result_entity



class Entity {
  + {PK}  name: String
  + {opt} namespace: String
  + {opt} identifier: String
  + {opt} description: String
  + {opt} value_object: Boolean
  + {get} class_name: String
  + {get} inherited: Boolean
  + {get} top_level: Boolean
  + {get} supports_namespace: Boolean
  + {get} fqn: String
  + {get} primary_key_names: List<String>
}





Entity *- - "1..*" Property : properties






Entity *- - "*" Relationship : relationships






Entity *- - "*" Query : queries



class Property {
  + name: String
  + {opt} identifier: String
  + {opt} primary_key: Boolean
  + type: String
  + {opt} domain_type_name: String?
  + {opt} size: Int
  + {opt} optional: Boolean
  + {opt} description: String
  + {opt} default_value: String?
  + {opt} example_value: String
  + {opt} table_column_name: String
  + {opt} snippet: String?
  + {opt} multiple: Boolean
  + {get} property_name: String
  + {get} class_name: String
  + {get} nullable: Boolean
}





Property *- - "0..1" ValueDomain : domain






Property - - "0..1" ValueDomainType : domain_type



class Relationship {
  + name: String
  + {opt} identifier: String
  + cardinality: String
  + reference_entity_name: String
  + {opt} aggregate: Boolean
  + {opt} inherited: Boolean
  + {opt} description: String
  + {opt} snippet: String?
  + {get} class_name: String
  + {get} multiple: Boolean
  + {get} allows_empty: Boolean
  + {get} nullable: Boolean
  + {get} property_name: String
  + {get} bidirectional: Boolean
  + {get} recursive: Boolean
}





Relationship *- - "*" PropertyMapping : mappings






Relationship - - "1" Entity : reference_entity



class ValueDomainType {
  + name: String
  + type: String
  + {opt} description: String
}





ValueDomainType *- - "1" ValueDomain : domain



class ValueDomain {
  + {opt} pattern: String?
}





ValueDomain *- - "*" ValueItem : choices



class ValueItem {
  + value: String
  + {opt} label: String
  + {opt} description: String
}


class PropertyMapping {
  + from: String
  + to: String
  + {opt} null_value: String?
}


class NamedValue {
  + name: String
  + expression: String
}


class NamedParam {
  + name: String
  + type: String
  + {opt} description: String
}


@enduml

PlantUML version 1.2019.03(Sun Mar 10 20:04:44 JST 2019)
(GPL source distribution)
Java Runtime: OpenJDK Runtime Environment
JVM: OpenJDK 64-Bit Server VM
Java Version: 1.8.0_172-b01
Operating System: Mac OS X
OS Version: 10.14.4
Default Encoding: UTF-8
Language: en
Country: JP
--></g></svg>