<?xml version="1.0" encoding="UTF-8" standalone="no"?><svg xmlns="http://www.w3.org/2000/svg" xmlns:xlink="http://www.w3.org/1999/xlink" contentScriptType="application/ecmascript" contentStyleType="text/css" height="1236px" preserveAspectRatio="none" style="width:673px;height:1236px;" version="1.1" viewBox="0 0 673 1236" width="673px" zoomAndPan="magnify"><defs><filter height="300%" id="f14jq0ktrxq2st" width="300%" x="-1" y="-1"><feGaussianBlur result="blurOut" stdDeviation="2.0"/><feColorMatrix in="blurOut" result="blurOut2" type="matrix" values="0 0 0 0 0 0 0 0 0 0 0 0 0 0 0 0 0 0 .4 0"/><feOffset dx="4.0" dy="4.0" in="blurOut2" result="blurOut3"/><feBlend in="SourceGraphic" in2="blurOut3" mode="normal"/></filter></defs><g><!--class Query--><rect fill="#FEFECE" filter="url(#f14jq0ktrxq2st)" height="151.6406" id="Query" style="stroke: #A80036; stroke-width: 1.5;" width="171" x="171" y="8"/><ellipse cx="235.25" cy="24" fill="#ADD1B2" rx="11" ry="11" style="stroke: #A80036; stroke-width: 1.0;"/><path d="M237.7231,30.1431 Q237.1421,30.4419 236.5029,30.5913 Q235.8638,30.7407 235.1582,30.7407 Q232.6514,30.7407 231.3315,29.0889 Q230.0117,27.437 230.0117,24.3159 Q230.0117,21.1865 231.3315,19.5347 Q232.6514,17.8828 235.1582,17.8828 Q235.8638,17.8828 236.5112,18.0322 Q237.1587,18.1816 237.7231,18.4805 L237.7231,21.2031 Q237.0923,20.6221 236.4988,20.3523 Q235.9053,20.0825 235.2744,20.0825 Q233.9297,20.0825 233.2449,21.1492 Q232.5601,22.2158 232.5601,24.3159 Q232.5601,26.4077 233.2449,27.4744 Q233.9297,28.541 235.2744,28.541 Q235.9053,28.541 236.4988,28.2712 Q237.0923,28.0015 237.7231,27.4204 Z "/><text fill="#000000" font-family="sans-serif" font-size="12" lengthAdjust="spacingAndGlyphs" textLength="34" x="255.75" y="28.5352">Query</text><line style="stroke: #A80036; stroke-width: 1.5;" x1="172" x2="341" y1="40" y2="40"/><ellipse cx="182" cy="51.9775" fill="none" rx="3" ry="3" style="stroke: #038048; stroke-width: 1.0;"/><text fill="#000000" font-family="sans-serif" font-size="11" lengthAdjust="spacingAndGlyphs" textLength="67" x="191" y="54.6348">name: String</text><ellipse cx="182" cy="64.9326" fill="none" rx="3" ry="3" style="stroke: #038048; stroke-width: 1.0;"/><text fill="#000000" font-family="sans-serif" font-size="11" lengthAdjust="spacingAndGlyphs" textLength="86" x="191" y="67.5898">identifier: String</text><ellipse cx="182" cy="77.8877" fill="none" rx="3" ry="3" style="stroke: #038048; stroke-width: 1.0;"/><text fill="#000000" font-family="sans-serif" font-size="11" lengthAdjust="spacingAndGlyphs" textLength="61" x="191" y="80.5449">type: String</text><ellipse cx="182" cy="90.8428" fill="none" rx="3" ry="3" style="stroke: #038048; stroke-width: 1.0;"/><text fill="#000000" font-family="sans-serif" font-size="11" lengthAdjust="spacingAndGlyphs" textLength="145" x="191" y="93.5">result_entity_name: String?</text><ellipse cx="182" cy="103.7979" fill="none" rx="3" ry="3" style="stroke: #038048; stroke-width: 1.0;"/><text fill="#000000" font-family="sans-serif" font-size="11" lengthAdjust="spacingAndGlyphs" textLength="99" x="191" y="106.4551">description: String</text><ellipse cx="182" cy="116.7529" fill="none" rx="3" ry="3" style="stroke: #038048; stroke-width: 1.0;"/><text fill="#000000" font-family="sans-serif" font-size="11" lengthAdjust="spacingAndGlyphs" textLength="94" x="191" y="119.4102">cardinality: String</text><ellipse cx="182" cy="129.708" fill="none" rx="3" ry="3" style="stroke: #038048; stroke-width: 1.0;"/><text fill="#000000" font-family="sans-serif" font-size="11" lengthAdjust="spacingAndGlyphs" textLength="78" x="191" y="132.3652">snippet: String</text><ellipse cx="182" cy="142.6631" fill="none" rx="3" ry="3" style="stroke: #038048; stroke-width: 1.0;"/><text fill="#000000" font-family="sans-serif" font-size="11" lengthAdjust="spacingAndGlyphs" textLength="120" x="191" y="145.3203">{get} oneliner: Boolean</text><line style="stroke: #A80036; stroke-width: 1.5;" x1="172" x2="341" y1="151.6406" y2="151.6406"/><!--class Entity--><rect fill="#FEFECE" filter="url(#f14jq0ktrxq2st)" height="190.5059" id="Entity" style="stroke: #A80036; stroke-width: 1.5;" width="236" x="138.5" y="237"/><ellipse cx="236.75" cy="253" fill="#ADD1B2" rx="11" ry="11" style="stroke: #A80036; stroke-width: 1.0;"/><path d="M239.2231,259.1431 Q238.6421,259.4419 238.0029,259.5913 Q237.3638,259.7407 236.6582,259.7407 Q234.1514,259.7407 232.8315,258.0889 Q231.5117,256.437 231.5117,253.3159 Q231.5117,250.1865 232.8315,248.5347 Q234.1514,246.8828 236.6582,246.8828 Q237.3638,246.8828 238.0112,247.0322 Q238.6587,247.1816 239.2231,247.4805 L239.2231,250.2031 Q238.5923,249.6221 237.9988,249.3523 Q237.4053,249.0825 236.7744,249.0825 Q235.4297,249.0825 234.7449,250.1492 Q234.0601,251.2158 234.0601,253.3159 Q234.0601,255.4077 234.7449,256.4744 Q235.4297,257.541 236.7744,257.541 Q237.4053,257.541 237.9988,257.2712 Q238.5923,257.0015 239.2231,256.4204 Z "/><text fill="#000000" font-family="sans-serif" font-size="12" lengthAdjust="spacingAndGlyphs" textLength="31" x="257.25" y="257.5352">Entity</text><line style="stroke: #A80036; stroke-width: 1.5;" x1="139.5" x2="373.5" y1="269" y2="269"/><ellipse cx="149.5" cy="280.9775" fill="none" rx="3" ry="3" style="stroke: #038048; stroke-width: 1.0;"/><text fill="#000000" font-family="sans-serif" font-size="11" lengthAdjust="spacingAndGlyphs" textLength="67" x="158.5" y="283.6348">name: String</text><ellipse cx="149.5" cy="293.9326" fill="none" rx="3" ry="3" style="stroke: #038048; stroke-width: 1.0;"/><text fill="#000000" font-family="sans-serif" font-size="11" lengthAdjust="spacingAndGlyphs" textLength="98" x="158.5" y="296.5898">namespace: String</text><ellipse cx="149.5" cy="306.8877" fill="none" rx="3" ry="3" style="stroke: #038048; stroke-width: 1.0;"/><text fill="#000000" font-family="sans-serif" font-size="11" lengthAdjust="spacingAndGlyphs" textLength="86" x="158.5" y="309.5449">identifier: String</text><ellipse cx="149.5" cy="319.8428" fill="none" rx="3" ry="3" style="stroke: #038048; stroke-width: 1.0;"/><text fill="#000000" font-family="sans-serif" font-size="11" lengthAdjust="spacingAndGlyphs" textLength="99" x="158.5" y="322.5">description: String</text><ellipse cx="149.5" cy="332.7979" fill="none" rx="3" ry="3" style="stroke: #038048; stroke-width: 1.0;"/><text fill="#000000" font-family="sans-serif" font-size="11" lengthAdjust="spacingAndGlyphs" textLength="115" x="158.5" y="335.4551">value_object: Boolean</text><ellipse cx="149.5" cy="345.7529" fill="none" rx="3" ry="3" style="stroke: #038048; stroke-width: 1.0;"/><text fill="#000000" font-family="sans-serif" font-size="11" lengthAdjust="spacingAndGlyphs" textLength="128" x="158.5" y="348.4102">{get} class_name: String</text><ellipse cx="149.5" cy="358.708" fill="none" rx="3" ry="3" style="stroke: #038048; stroke-width: 1.0;"/><text fill="#000000" font-family="sans-serif" font-size="11" lengthAdjust="spacingAndGlyphs" textLength="124" x="158.5" y="361.3652">{get} inherited: Boolean</text><ellipse cx="149.5" cy="371.6631" fill="none" rx="3" ry="3" style="stroke: #038048; stroke-width: 1.0;"/><text fill="#000000" font-family="sans-serif" font-size="11" lengthAdjust="spacingAndGlyphs" textLength="124" x="158.5" y="374.3203">{get} top_level: Boolean</text><ellipse cx="149.5" cy="384.6182" fill="none" rx="3" ry="3" style="stroke: #038048; stroke-width: 1.0;"/><text fill="#000000" font-family="sans-serif" font-size="11" lengthAdjust="spacingAndGlyphs" textLength="191" x="158.5" y="387.2754">{get} supports_namespace: Boolean</text><ellipse cx="149.5" cy="397.5732" fill="none" rx="3" ry="3" style="stroke: #038048; stroke-width: 1.0;"/><text fill="#000000" font-family="sans-serif" font-size="11" lengthAdjust="spacingAndGlyphs" textLength="84" x="158.5" y="400.2305">{get} fqn: String</text><ellipse cx="149.5" cy="410.5283" fill="none" rx="3" ry="3" style="stroke: #038048; stroke-width: 1.0;"/><text fill="#000000" font-family="sans-serif" font-size="11" lengthAdjust="spacingAndGlyphs" textLength="210" x="158.5" y="413.1855">{get} primary_key_names: List&lt;String&gt;</text><line style="stroke: #A80036; stroke-width: 1.5;" x1="139.5" x2="373.5" y1="419.5059" y2="419.5059"/><!--class Property--><rect fill="#FEFECE" filter="url(#f14jq0ktrxq2st)" height="255.2813" id="Property" style="stroke: #A80036; stroke-width: 1.5;" width="174" x="63.5" y="505"/><ellipse cx="121.75" cy="521" fill="#ADD1B2" rx="11" ry="11" style="stroke: #A80036; stroke-width: 1.0;"/><path d="M124.2231,527.1431 Q123.6421,527.4419 123.0029,527.5913 Q122.3638,527.7407 121.6582,527.7407 Q119.1514,527.7407 117.8315,526.0889 Q116.5117,524.437 116.5117,521.3159 Q116.5117,518.1865 117.8315,516.5347 Q119.1514,514.8828 121.6582,514.8828 Q122.3638,514.8828 123.0112,515.0322 Q123.6587,515.1816 124.2231,515.4805 L124.2231,518.2031 Q123.5923,517.6221 122.9988,517.3523 Q122.4053,517.0825 121.7744,517.0825 Q120.4297,517.0825 119.7449,518.1492 Q119.0601,519.2158 119.0601,521.3159 Q119.0601,523.4077 119.7449,524.4744 Q120.4297,525.541 121.7744,525.541 Q122.4053,525.541 122.9988,525.2712 Q123.5923,525.0015 124.2231,524.4204 Z "/><text fill="#000000" font-family="sans-serif" font-size="12" lengthAdjust="spacingAndGlyphs" textLength="49" x="142.25" y="525.5352">Property</text><line style="stroke: #A80036; stroke-width: 1.5;" x1="64.5" x2="236.5" y1="537" y2="537"/><ellipse cx="74.5" cy="548.9775" fill="none" rx="3" ry="3" style="stroke: #038048; stroke-width: 1.0;"/><text fill="#000000" font-family="sans-serif" font-size="11" lengthAdjust="spacingAndGlyphs" textLength="67" x="83.5" y="551.6348">name: String</text><ellipse cx="74.5" cy="561.9326" fill="none" rx="3" ry="3" style="stroke: #038048; stroke-width: 1.0;"/><text fill="#000000" font-family="sans-serif" font-size="11" lengthAdjust="spacingAndGlyphs" textLength="86" x="83.5" y="564.5898">identifier: String</text><ellipse cx="74.5" cy="574.8877" fill="none" rx="3" ry="3" style="stroke: #038048; stroke-width: 1.0;"/><text fill="#000000" font-family="sans-serif" font-size="11" lengthAdjust="spacingAndGlyphs" textLength="114" x="83.5" y="577.5449">primary_key: Boolean</text><ellipse cx="74.5" cy="587.8428" fill="none" rx="3" ry="3" style="stroke: #038048; stroke-width: 1.0;"/><text fill="#000000" font-family="sans-serif" font-size="11" lengthAdjust="spacingAndGlyphs" textLength="61" x="83.5" y="590.5">type: String</text><ellipse cx="74.5" cy="600.7979" fill="none" rx="3" ry="3" style="stroke: #038048; stroke-width: 1.0;"/><text fill="#000000" font-family="sans-serif" font-size="11" lengthAdjust="spacingAndGlyphs" textLength="147" x="83.5" y="603.4551">domain_type_name: String?</text><ellipse cx="74.5" cy="613.7529" fill="none" rx="3" ry="3" style="stroke: #038048; stroke-width: 1.0;"/><text fill="#000000" font-family="sans-serif" font-size="11" lengthAdjust="spacingAndGlyphs" textLength="41" x="83.5" y="616.4102">size: Int</text><ellipse cx="74.5" cy="626.708" fill="none" rx="3" ry="3" style="stroke: #038048; stroke-width: 1.0;"/><text fill="#000000" font-family="sans-serif" font-size="11" lengthAdjust="spacingAndGlyphs" textLength="92" x="83.5" y="629.3652">optional: Boolean</text><ellipse cx="74.5" cy="639.6631" fill="none" rx="3" ry="3" style="stroke: #038048; stroke-width: 1.0;"/><text fill="#000000" font-family="sans-serif" font-size="11" lengthAdjust="spacingAndGlyphs" textLength="99" x="83.5" y="642.3203">description: String</text><ellipse cx="74.5" cy="652.6182" fill="none" rx="3" ry="3" style="stroke: #038048; stroke-width: 1.0;"/><text fill="#000000" font-family="sans-serif" font-size="11" lengthAdjust="spacingAndGlyphs" textLength="114" x="83.5" y="655.2754">default_value: String?</text><ellipse cx="74.5" cy="665.5732" fill="none" rx="3" ry="3" style="stroke: #038048; stroke-width: 1.0;"/><text fill="#000000" font-family="sans-serif" font-size="11" lengthAdjust="spacingAndGlyphs" textLength="117" x="83.5" y="668.2305">example_value: String</text><ellipse cx="74.5" cy="678.5283" fill="none" rx="3" ry="3" style="stroke: #038048; stroke-width: 1.0;"/><text fill="#000000" font-family="sans-serif" font-size="11" lengthAdjust="spacingAndGlyphs" textLength="145" x="83.5" y="681.1855">table_column_name: String</text><ellipse cx="74.5" cy="691.4834" fill="none" rx="3" ry="3" style="stroke: #038048; stroke-width: 1.0;"/><text fill="#000000" font-family="sans-serif" font-size="11" lengthAdjust="spacingAndGlyphs" textLength="83" x="83.5" y="694.1406">snippet: String?</text><ellipse cx="74.5" cy="704.4385" fill="none" rx="3" ry="3" style="stroke: #038048; stroke-width: 1.0;"/><text fill="#000000" font-family="sans-serif" font-size="11" lengthAdjust="spacingAndGlyphs" textLength="91" x="83.5" y="707.0957">multiple: Boolean</text><ellipse cx="74.5" cy="717.3936" fill="none" rx="3" ry="3" style="stroke: #038048; stroke-width: 1.0;"/><text fill="#000000" font-family="sans-serif" font-size="11" lengthAdjust="spacingAndGlyphs" textLength="148" x="83.5" y="720.0508">{get} property_name: String</text><ellipse cx="74.5" cy="730.3486" fill="none" rx="3" ry="3" style="stroke: #038048; stroke-width: 1.0;"/><text fill="#000000" font-family="sans-serif" font-size="11" lengthAdjust="spacingAndGlyphs" textLength="128" x="83.5" y="733.0059">{get} class_name: String</text><ellipse cx="74.5" cy="743.3037" fill="none" rx="3" ry="3" style="stroke: #038048; stroke-width: 1.0;"/><text fill="#000000" font-family="sans-serif" font-size="11" lengthAdjust="spacingAndGlyphs" textLength="118" x="83.5" y="745.9609">{get} nullable: Boolean</text><line style="stroke: #A80036; stroke-width: 1.5;" x1="64.5" x2="236.5" y1="752.2813" y2="752.2813"/><!--class Relationship--><rect fill="#FEFECE" filter="url(#f14jq0ktrxq2st)" height="242.3262" id="Relationship" style="stroke: #A80036; stroke-width: 1.5;" width="186" x="279.5" y="511.5"/><ellipse cx="333.25" cy="527.5" fill="#ADD1B2" rx="11" ry="11" style="stroke: #A80036; stroke-width: 1.0;"/><path d="M335.7231,533.6431 Q335.1421,533.9419 334.5029,534.0913 Q333.8638,534.2407 333.1582,534.2407 Q330.6514,534.2407 329.3315,532.5889 Q328.0117,530.937 328.0117,527.8159 Q328.0117,524.6865 329.3315,523.0347 Q330.6514,521.3828 333.1582,521.3828 Q333.8638,521.3828 334.5112,521.5322 Q335.1587,521.6816 335.7231,521.9805 L335.7231,524.7031 Q335.0923,524.1221 334.4988,523.8523 Q333.9053,523.5825 333.2744,523.5825 Q331.9297,523.5825 331.2449,524.6492 Q330.5601,525.7158 330.5601,527.8159 Q330.5601,529.9077 331.2449,530.9744 Q331.9297,532.041 333.2744,532.041 Q333.9053,532.041 334.4988,531.7712 Q335.0923,531.5015 335.7231,530.9204 Z "/><text fill="#000000" font-family="sans-serif" font-size="12" lengthAdjust="spacingAndGlyphs" textLength="70" x="353.75" y="532.0352">Relationship</text><line style="stroke: #A80036; stroke-width: 1.5;" x1="280.5" x2="464.5" y1="543.5" y2="543.5"/><ellipse cx="290.5" cy="555.4775" fill="none" rx="3" ry="3" style="stroke: #038048; stroke-width: 1.0;"/><text fill="#000000" font-family="sans-serif" font-size="11" lengthAdjust="spacingAndGlyphs" textLength="67" x="299.5" y="558.1348">name: String</text><ellipse cx="290.5" cy="568.4326" fill="none" rx="3" ry="3" style="stroke: #038048; stroke-width: 1.0;"/><text fill="#000000" font-family="sans-serif" font-size="11" lengthAdjust="spacingAndGlyphs" textLength="86" x="299.5" y="571.0898">identifier: String</text><ellipse cx="290.5" cy="581.3877" fill="none" rx="3" ry="3" style="stroke: #038048; stroke-width: 1.0;"/><text fill="#000000" font-family="sans-serif" font-size="11" lengthAdjust="spacingAndGlyphs" textLength="94" x="299.5" y="584.0449">cardinality: String</text><ellipse cx="290.5" cy="594.3428" fill="none" rx="3" ry="3" style="stroke: #038048; stroke-width: 1.0;"/><text fill="#000000" font-family="sans-serif" font-size="11" lengthAdjust="spacingAndGlyphs" textLength="160" x="299.5" y="597">reference_entity_name: String</text><ellipse cx="290.5" cy="607.2979" fill="none" rx="3" ry="3" style="stroke: #038048; stroke-width: 1.0;"/><text fill="#000000" font-family="sans-serif" font-size="11" lengthAdjust="spacingAndGlyphs" textLength="102" x="299.5" y="609.9551">aggregate: Boolean</text><ellipse cx="290.5" cy="620.2529" fill="none" rx="3" ry="3" style="stroke: #038048; stroke-width: 1.0;"/><text fill="#000000" font-family="sans-serif" font-size="11" lengthAdjust="spacingAndGlyphs" textLength="96" x="299.5" y="622.9102">inherited: Boolean</text><ellipse cx="290.5" cy="633.208" fill="none" rx="3" ry="3" style="stroke: #038048; stroke-width: 1.0;"/><text fill="#000000" font-family="sans-serif" font-size="11" lengthAdjust="spacingAndGlyphs" textLength="99" x="299.5" y="635.8652">description: String</text><ellipse cx="290.5" cy="646.1631" fill="none" rx="3" ry="3" style="stroke: #038048; stroke-width: 1.0;"/><text fill="#000000" font-family="sans-serif" font-size="11" lengthAdjust="spacingAndGlyphs" textLength="83" x="299.5" y="648.8203">snippet: String?</text><ellipse cx="290.5" cy="659.1182" fill="none" rx="3" ry="3" style="stroke: #038048; stroke-width: 1.0;"/><text fill="#000000" font-family="sans-serif" font-size="11" lengthAdjust="spacingAndGlyphs" textLength="128" x="299.5" y="661.7754">{get} class_name: String</text><ellipse cx="290.5" cy="672.0732" fill="none" rx="3" ry="3" style="stroke: #038048; stroke-width: 1.0;"/><text fill="#000000" font-family="sans-serif" font-size="11" lengthAdjust="spacingAndGlyphs" textLength="119" x="299.5" y="674.7305">{get} multiple: Boolean</text><ellipse cx="290.5" cy="685.0283" fill="none" rx="3" ry="3" style="stroke: #038048; stroke-width: 1.0;"/><text fill="#000000" font-family="sans-serif" font-size="11" lengthAdjust="spacingAndGlyphs" textLength="148" x="299.5" y="687.6855">{get} allows_empty: Boolean</text><ellipse cx="290.5" cy="697.9834" fill="none" rx="3" ry="3" style="stroke: #038048; stroke-width: 1.0;"/><text fill="#000000" font-family="sans-serif" font-size="11" lengthAdjust="spacingAndGlyphs" textLength="118" x="299.5" y="700.6406">{get} nullable: Boolean</text><ellipse cx="290.5" cy="710.9385" fill="none" rx="3" ry="3" style="stroke: #038048; stroke-width: 1.0;"/><text fill="#000000" font-family="sans-serif" font-size="11" lengthAdjust="spacingAndGlyphs" textLength="148" x="299.5" y="713.5957">{get} property_name: String</text><ellipse cx="290.5" cy="723.8936" fill="none" rx="3" ry="3" style="stroke: #038048; stroke-width: 1.0;"/><text fill="#000000" font-family="sans-serif" font-size="11" lengthAdjust="spacingAndGlyphs" textLength="143" x="299.5" y="726.5508">{get} bidirectional: Boolean</text><ellipse cx="290.5" cy="736.8486" fill="none" rx="3" ry="3" style="stroke: #038048; stroke-width: 1.0;"/><text fill="#000000" font-family="sans-serif" font-size="11" lengthAdjust="spacingAndGlyphs" textLength="126" x="299.5" y="739.5059">{get} recursive: Boolean</text><line style="stroke: #A80036; stroke-width: 1.5;" x1="280.5" x2="464.5" y1="745.8262" y2="745.8262"/><!--class ValueDomain--><rect fill="#FEFECE" filter="url(#f14jq0ktrxq2st)" height="60.9551" id="ValueDomain" style="stroke: #A80036; stroke-width: 1.5;" width="108" x="14.5" y="1001"/><ellipse cx="29.5" cy="1017" fill="#ADD1B2" rx="11" ry="11" style="stroke: #A80036; stroke-width: 1.0;"/><path d="M31.9731,1023.1431 Q31.3921,1023.4419 30.7529,1023.5913 Q30.1138,1023.7407 29.4082,1023.7407 Q26.9014,1023.7407 25.5815,1022.0889 Q24.2617,1020.437 24.2617,1017.3159 Q24.2617,1014.1865 25.5815,1012.5347 Q26.9014,1010.8828 29.4082,1010.8828 Q30.1138,1010.8828 30.7612,1011.0322 Q31.4087,1011.1816 31.9731,1011.4805 L31.9731,1014.2031 Q31.3423,1013.6221 30.7488,1013.3523 Q30.1553,1013.0825 29.5244,1013.0825 Q28.1797,1013.0825 27.4949,1014.1492 Q26.8101,1015.2158 26.8101,1017.3159 Q26.8101,1019.4077 27.4949,1020.4744 Q28.1797,1021.541 29.5244,1021.541 Q30.1553,1021.541 30.7488,1021.2712 Q31.3423,1021.0015 31.9731,1020.4204 Z "/><text fill="#000000" font-family="sans-serif" font-size="12" lengthAdjust="spacingAndGlyphs" textLength="76" x="43.5" y="1021.5352">ValueDomain</text><line style="stroke: #A80036; stroke-width: 1.5;" x1="15.5" x2="121.5" y1="1033" y2="1033"/><ellipse cx="25.5" cy="1044.9775" fill="none" rx="3" ry="3" style="stroke: #038048; stroke-width: 1.0;"/><text fill="#000000" font-family="sans-serif" font-size="11" lengthAdjust="spacingAndGlyphs" textLength="82" x="34.5" y="1047.6348">pattern: String?</text><line style="stroke: #A80036; stroke-width: 1.5;" x1="15.5" x2="121.5" y1="1053.9551" y2="1053.9551"/><!--class ValueDomainType--><rect fill="#FEFECE" filter="url(#f14jq0ktrxq2st)" height="86.8652" id="ValueDomainType" style="stroke: #A80036; stroke-width: 1.5;" width="137" x="124" y="837"/><ellipse cx="139" cy="853" fill="#ADD1B2" rx="11" ry="11" style="stroke: #A80036; stroke-width: 1.0;"/><path d="M141.4731,859.1431 Q140.8921,859.4419 140.2529,859.5913 Q139.6138,859.7407 138.9082,859.7407 Q136.4014,859.7407 135.0815,858.0889 Q133.7617,856.437 133.7617,853.3159 Q133.7617,850.1865 135.0815,848.5347 Q136.4014,846.8828 138.9082,846.8828 Q139.6138,846.8828 140.2612,847.0322 Q140.9087,847.1816 141.4731,847.4805 L141.4731,850.2031 Q140.8423,849.6221 140.2488,849.3523 Q139.6553,849.0825 139.0244,849.0825 Q137.6797,849.0825 136.9949,850.1492 Q136.3101,851.2158 136.3101,853.3159 Q136.3101,855.4077 136.9949,856.4744 Q137.6797,857.541 139.0244,857.541 Q139.6553,857.541 140.2488,857.2712 Q140.8423,857.0015 141.4731,856.4204 Z "/><text fill="#000000" font-family="sans-serif" font-size="12" lengthAdjust="spacingAndGlyphs" textLength="105" x="153" y="857.5352">ValueDomainType</text><line style="stroke: #A80036; stroke-width: 1.5;" x1="125" x2="260" y1="869" y2="869"/><ellipse cx="135" cy="880.9775" fill="none" rx="3" ry="3" style="stroke: #038048; stroke-width: 1.0;"/><text fill="#000000" font-family="sans-serif" font-size="11" lengthAdjust="spacingAndGlyphs" textLength="67" x="144" y="883.6348">name: String</text><ellipse cx="135" cy="893.9326" fill="none" rx="3" ry="3" style="stroke: #038048; stroke-width: 1.0;"/><text fill="#000000" font-family="sans-serif" font-size="11" lengthAdjust="spacingAndGlyphs" textLength="61" x="144" y="896.5898">type: String</text><ellipse cx="135" cy="906.8877" fill="none" rx="3" ry="3" style="stroke: #038048; stroke-width: 1.0;"/><text fill="#000000" font-family="sans-serif" font-size="11" lengthAdjust="spacingAndGlyphs" textLength="99" x="144" y="909.5449">description: String</text><line style="stroke: #A80036; stroke-width: 1.5;" x1="125" x2="260" y1="915.8652" y2="915.8652"/><!--class PropertyMapping--><rect fill="#FEFECE" filter="url(#f14jq0ktrxq2st)" height="86.8652" id="PropertyMapping" style="stroke: #A80036; stroke-width: 1.5;" width="131" x="307" y="837"/><ellipse cx="322" cy="853" fill="#ADD1B2" rx="11" ry="11" style="stroke: #A80036; stroke-width: 1.0;"/><path d="M324.4731,859.1431 Q323.8921,859.4419 323.2529,859.5913 Q322.6138,859.7407 321.9082,859.7407 Q319.4014,859.7407 318.0815,858.0889 Q316.7617,856.437 316.7617,853.3159 Q316.7617,850.1865 318.0815,848.5347 Q319.4014,846.8828 321.9082,846.8828 Q322.6138,846.8828 323.2612,847.0322 Q323.9087,847.1816 324.4731,847.4805 L324.4731,850.2031 Q323.8423,849.6221 323.2488,849.3523 Q322.6553,849.0825 322.0244,849.0825 Q320.6797,849.0825 319.9949,850.1492 Q319.3101,851.2158 319.3101,853.3159 Q319.3101,855.4077 319.9949,856.4744 Q320.6797,857.541 322.0244,857.541 Q322.6553,857.541 323.2488,857.2712 Q323.8423,857.0015 324.4731,856.4204 Z "/><text fill="#000000" font-family="sans-serif" font-size="12" lengthAdjust="spacingAndGlyphs" textLength="99" x="336" y="857.5352">PropertyMapping</text><line style="stroke: #A80036; stroke-width: 1.5;" x1="308" x2="437" y1="869" y2="869"/><ellipse cx="318" cy="880.9775" fill="none" rx="3" ry="3" style="stroke: #038048; stroke-width: 1.0;"/><text fill="#000000" font-family="sans-serif" font-size="11" lengthAdjust="spacingAndGlyphs" textLength="64" x="327" y="883.6348">from: String</text><ellipse cx="318" cy="893.9326" fill="none" rx="3" ry="3" style="stroke: #038048; stroke-width: 1.0;"/><text fill="#000000" font-family="sans-serif" font-size="11" lengthAdjust="spacingAndGlyphs" textLength="49" x="327" y="896.5898">to: String</text><ellipse cx="318" cy="906.8877" fill="none" rx="3" ry="3" style="stroke: #038048; stroke-width: 1.0;"/><text fill="#000000" font-family="sans-serif" font-size="11" lengthAdjust="spacingAndGlyphs" textLength="97" x="327" y="909.5449">null_value: String?</text><line style="stroke: #A80036; stroke-width: 1.5;" x1="308" x2="437" y1="915.8652" y2="915.8652"/><!--class ValueItem--><rect fill="#FEFECE" filter="url(#f14jq0ktrxq2st)" height="86.8652" id="ValueItem" style="stroke: #A80036; stroke-width: 1.5;" width="125" x="6" y="1139"/><ellipse cx="37.2" cy="1155" fill="#ADD1B2" rx="11" ry="11" style="stroke: #A80036; stroke-width: 1.0;"/><path d="M39.6731,1161.1431 Q39.0921,1161.4419 38.4529,1161.5913 Q37.8138,1161.7407 37.1082,1161.7407 Q34.6014,1161.7407 33.2815,1160.0889 Q31.9617,1158.437 31.9617,1155.3159 Q31.9617,1152.1865 33.2815,1150.5347 Q34.6014,1148.8828 37.1082,1148.8828 Q37.8138,1148.8828 38.4612,1149.0322 Q39.1087,1149.1816 39.6731,1149.4805 L39.6731,1152.2031 Q39.0423,1151.6221 38.4488,1151.3523 Q37.8553,1151.0825 37.2244,1151.0825 Q35.8797,1151.0825 35.1949,1152.1492 Q34.5101,1153.2158 34.5101,1155.3159 Q34.5101,1157.4077 35.1949,1158.4744 Q35.8797,1159.541 37.2244,1159.541 Q37.8553,1159.541 38.4488,1159.2712 Q39.0423,1159.0015 39.6731,1158.4204 Z "/><text fill="#000000" font-family="sans-serif" font-size="12" lengthAdjust="spacingAndGlyphs" textLength="57" x="54.8" y="1159.5352">ValueItem</text><line style="stroke: #A80036; stroke-width: 1.5;" x1="7" x2="130" y1="1171" y2="1171"/><ellipse cx="17" cy="1182.9775" fill="none" rx="3" ry="3" style="stroke: #038048; stroke-width: 1.0;"/><text fill="#000000" font-family="sans-serif" font-size="11" lengthAdjust="spacingAndGlyphs" textLength="66" x="26" y="1185.6348">value: String</text><ellipse cx="17" cy="1195.9326" fill="none" rx="3" ry="3" style="stroke: #038048; stroke-width: 1.0;"/><text fill="#000000" font-family="sans-serif" font-size="11" lengthAdjust="spacingAndGlyphs" textLength="63" x="26" y="1198.5898">label: String</text><ellipse cx="17" cy="1208.8877" fill="none" rx="3" ry="3" style="stroke: #038048; stroke-width: 1.0;"/><text fill="#000000" font-family="sans-serif" font-size="11" lengthAdjust="spacingAndGlyphs" textLength="99" x="26" y="1211.5449">description: String</text><line style="stroke: #A80036; stroke-width: 1.5;" x1="7" x2="130" y1="1217.8652" y2="1217.8652"/><!--class NamedValue--><rect fill="#FEFECE" filter="url(#f14jq0ktrxq2st)" height="73.9102" id="NamedValue" style="stroke: #A80036; stroke-width: 1.5;" width="124" x="377.5" y="47"/><ellipse cx="400.6" cy="63" fill="#ADD1B2" rx="11" ry="11" style="stroke: #A80036; stroke-width: 1.0;"/><path d="M403.0731,69.1431 Q402.4921,69.4419 401.8529,69.5913 Q401.2138,69.7407 400.5082,69.7407 Q398.0014,69.7407 396.6815,68.0889 Q395.3617,66.437 395.3617,63.3159 Q395.3617,60.1865 396.6815,58.5347 Q398.0014,56.8828 400.5082,56.8828 Q401.2138,56.8828 401.8612,57.0322 Q402.5087,57.1816 403.0731,57.4805 L403.0731,60.2031 Q402.4423,59.6221 401.8488,59.3523 Q401.2553,59.0825 400.6244,59.0825 Q399.2797,59.0825 398.5949,60.1492 Q397.9101,61.2158 397.9101,63.3159 Q397.9101,65.4077 398.5949,66.4744 Q399.2797,67.541 400.6244,67.541 Q401.2553,67.541 401.8488,67.2712 Q402.4423,67.0015 403.0731,66.4204 Z "/><text fill="#000000" font-family="sans-serif" font-size="12" lengthAdjust="spacingAndGlyphs" textLength="74" x="416.4" y="67.5352">NamedValue</text><line style="stroke: #A80036; stroke-width: 1.5;" x1="378.5" x2="500.5" y1="79" y2="79"/><ellipse cx="388.5" cy="90.9775" fill="none" rx="3" ry="3" style="stroke: #038048; stroke-width: 1.0;"/><text fill="#000000" font-family="sans-serif" font-size="11" lengthAdjust="spacingAndGlyphs" textLength="67" x="397.5" y="93.6348">name: String</text><ellipse cx="388.5" cy="103.9326" fill="none" rx="3" ry="3" style="stroke: #038048; stroke-width: 1.0;"/><text fill="#000000" font-family="sans-serif" font-size="11" lengthAdjust="spacingAndGlyphs" textLength="98" x="397.5" y="106.5898">expression: String</text><line style="stroke: #A80036; stroke-width: 1.5;" x1="378.5" x2="500.5" y1="112.9102" y2="112.9102"/><!--class NamedParam--><rect fill="#FEFECE" filter="url(#f14jq0ktrxq2st)" height="86.8652" id="NamedParam" style="stroke: #A80036; stroke-width: 1.5;" width="125" x="537" y="40.5"/><ellipse cx="558.3" cy="56.5" fill="#ADD1B2" rx="11" ry="11" style="stroke: #A80036; stroke-width: 1.0;"/><path d="M560.7731,62.6431 Q560.1921,62.9419 559.5529,63.0913 Q558.9138,63.2407 558.2082,63.2407 Q555.7014,63.2407 554.3815,61.5889 Q553.0617,59.937 553.0617,56.8159 Q553.0617,53.6865 554.3815,52.0347 Q555.7014,50.3828 558.2082,50.3828 Q558.9138,50.3828 559.5612,50.5322 Q560.2087,50.6816 560.7731,50.9805 L560.7731,53.7031 Q560.1423,53.1221 559.5488,52.8523 Q558.9553,52.5825 558.3244,52.5825 Q556.9797,52.5825 556.2949,53.6492 Q555.6101,54.7158 555.6101,56.8159 Q555.6101,58.9077 556.2949,59.9744 Q556.9797,61.041 558.3244,61.041 Q558.9553,61.041 559.5488,60.7712 Q560.1423,60.5015 560.7731,59.9204 Z "/><text fill="#000000" font-family="sans-serif" font-size="12" lengthAdjust="spacingAndGlyphs" textLength="79" x="573.7" y="61.0352">NamedParam</text><line style="stroke: #A80036; stroke-width: 1.5;" x1="538" x2="661" y1="72.5" y2="72.5"/><ellipse cx="548" cy="84.4775" fill="none" rx="3" ry="3" style="stroke: #038048; stroke-width: 1.0;"/><text fill="#000000" font-family="sans-serif" font-size="11" lengthAdjust="spacingAndGlyphs" textLength="67" x="557" y="87.1348">name: String</text><ellipse cx="548" cy="97.4326" fill="none" rx="3" ry="3" style="stroke: #038048; stroke-width: 1.0;"/><text fill="#000000" font-family="sans-serif" font-size="11" lengthAdjust="spacingAndGlyphs" textLength="61" x="557" y="100.0898">type: String</text><ellipse cx="548" cy="110.3877" fill="none" rx="3" ry="3" style="stroke: #038048; stroke-width: 1.0;"/><text fill="#000000" font-family="sans-serif" font-size="11" lengthAdjust="spacingAndGlyphs" textLength="99" x="557" y="113.0449">description: String</text><line style="stroke: #A80036; stroke-width: 1.5;" x1="538" x2="661" y1="119.3652" y2="119.3652"/><!--link Query to Entity--><path d="M204.8483,160.295 C200.2202,169.9654 196.2506,179.9882 193.5,190 C189.2362,205.5194 190.3577,221.5225 194.5914,236.9462 " fill="none" id="Query-Entity" style="stroke: #A80036; stroke-width: 1.0;"/><text fill="#000000" font-family="sans-serif" font-size="13" lengthAdjust="spacingAndGlyphs" textLength="79" x="194.5" y="203.5684">result_entity</text><text fill="#000000" font-family="sans-serif" font-size="13" lengthAdjust="spacingAndGlyphs" textLength="24" x="164.7018" y="226.3345">0..1</text><!--link Entity to Query--><path d="M279.0949,223.6028 C279.7128,212.2758 279.621,200.9179 278.5,190 C277.5017,180.2777 276.0013,170.1316 274.2439,160.135 " fill="none" id="Entity-Query" style="stroke: #A80036; stroke-width: 1.0;"/><polygon fill="#A80036" points="278.0628,236.8573,282.5166,231.186,278.9945,224.8935,274.5407,230.5649,278.0628,236.8573" style="stroke: #A80036; stroke-width: 1.0;"/><text fill="#000000" font-family="sans-serif" font-size="13" lengthAdjust="spacingAndGlyphs" textLength="46" x="280.5" y="203.5684">queries</text><text fill="#000000" font-family="sans-serif" font-size="13" lengthAdjust="spacingAndGlyphs" textLength="6" x="269.557" y="180.1819">*</text><!--link Entity to Property--><path d="M155.819,439.5693 C152.6466,445.5858 149.8389,451.7401 147.5,458 C141.9854,472.7592 138.8349,488.7223 137.3156,504.7913 " fill="none" id="Entity-Property" style="stroke: #A80036; stroke-width: 1.0;"/><polygon fill="#A80036" points="162.3421,428.1773,155.8894,431.3965,156.3792,438.5909,162.8319,435.3718,162.3421,428.1773" style="stroke: #A80036; stroke-width: 1.0;"/><text fill="#000000" font-family="sans-serif" font-size="13" lengthAdjust="spacingAndGlyphs" textLength="64" x="148.5" y="471.5684">properties</text><text fill="#000000" font-family="sans-serif" font-size="13" lengthAdjust="spacingAndGlyphs" textLength="22" x="113.8419" y="494.1213">1..*</text><!--link Entity to Relationship--><path d="M246.4686,441.2357 C247.6819,452.8065 249.8991,464.2609 253.5,475 C259.6012,493.1961 268.7275,510.9681 279.2635,527.6307 " fill="none" id="Entity-Relationship" style="stroke: #A80036; stroke-width: 1.0;"/><polygon fill="#A80036" points="245.505,428.1545,241.9566,434.4322,246.3867,440.1221,249.935,433.8444,245.505,428.1545" style="stroke: #A80036; stroke-width: 1.0;"/><text fill="#000000" font-family="sans-serif" font-size="13" lengthAdjust="spacingAndGlyphs" textLength="82" x="254.5" y="471.5684">relationships</text><text fill="#000000" font-family="sans-serif" font-size="13" lengthAdjust="spacingAndGlyphs" textLength="6" x="265.5947" y="516.244">*</text><!--link Relationship to Entity--><path d="M357.81,511.4173 C353.6545,493.1576 348.3275,474.8212 341.5,458 C337.4423,448.0028 332.5041,437.9888 327.0715,428.2198 " fill="none" id="Relationship-Entity" style="stroke: #A80036; stroke-width: 1.0;"/><text fill="#000000" font-family="sans-serif" font-size="13" lengthAdjust="spacingAndGlyphs" textLength="101" x="348.5" y="471.5684">reference_entity</text><text fill="#000000" font-family="sans-serif" font-size="13" lengthAdjust="spacingAndGlyphs" textLength="8" x="323.7523" y="448.0741">1</text><!--link Property to ValueDomain--><path d="M77.4689,772.5947 C69.2326,793.6927 62.1437,815.5715 57.5,837 C45.1796,893.853 54.3803,962.1102 61.7448,1000.7829 " fill="none" id="Property-ValueDomain" style="stroke: #A80036; stroke-width: 1.0;"/><polygon fill="#A80036" points="82.4411,760.2721,76.4865,764.3394,77.9507,771.4003,83.9053,767.333,82.4411,760.2721" style="stroke: #A80036; stroke-width: 1.0;"/><text fill="#000000" font-family="sans-serif" font-size="13" lengthAdjust="spacingAndGlyphs" textLength="47" x="58.5" y="885.5684">domain</text><text fill="#000000" font-family="sans-serif" font-size="13" lengthAdjust="spacingAndGlyphs" textLength="24" x="33.6421" y="990.0301">0..1</text><!--link Property to ValueDomainType--><path d="M172.1152,760.1324 C176.7984,787.7856 181.4407,815.1977 185.1096,836.8613 " fill="none" id="Property-ValueDomainType" style="stroke: #A80036; stroke-width: 1.0;"/><text fill="#000000" font-family="sans-serif" font-size="13" lengthAdjust="spacingAndGlyphs" textLength="81" x="180.5" y="803.5684">domain_type</text><text fill="#000000" font-family="sans-serif" font-size="13" lengthAdjust="spacingAndGlyphs" textLength="24" x="158.0193" y="826.3149">0..1</text><!--link Relationship to PropertyMapping--><path d="M372.5,766.8913 C372.5,792.2611 372.5,817.0467 372.5,836.9602 " fill="none" id="Relationship-PropertyMapping" style="stroke: #A80036; stroke-width: 1.0;"/><polygon fill="#A80036" points="372.5,753.594,368.5,759.594,372.5,765.594,376.5,759.594,372.5,753.594" style="stroke: #A80036; stroke-width: 1.0;"/><text fill="#000000" font-family="sans-serif" font-size="13" lengthAdjust="spacingAndGlyphs" textLength="62" x="373.5" y="803.5684">mappings</text><text fill="#000000" font-family="sans-serif" font-size="13" lengthAdjust="spacingAndGlyphs" textLength="6" x="366.0031" y="826.112">*</text><!--link ValueDomainType to ValueDomain--><path d="M148.136,934.5239 C129.8358,956.8088 109.2997,981.8166 93.6656,1000.8548 " fill="none" id="ValueDomainType-ValueDomain" style="stroke: #A80036; stroke-width: 1.0;"/><polygon fill="#A80036" points="156.6341,924.1755,149.7351,926.2739,149.0185,933.4493,155.9176,931.3509,156.6341,924.1755" style="stroke: #A80036; stroke-width: 1.0;"/><text fill="#000000" font-family="sans-serif" font-size="13" lengthAdjust="spacingAndGlyphs" textLength="47" x="131.5" y="967.5684">domain</text><text fill="#000000" font-family="sans-serif" font-size="13" lengthAdjust="spacingAndGlyphs" textLength="8" x="90.2956" y="990.1178">1</text><!--link ValueDomain to ValueItem--><path d="M68.5,1075.2261 C68.5,1095.216 68.5,1118.8408 68.5,1138.8245 " fill="none" id="ValueDomain-ValueItem" style="stroke: #A80036; stroke-width: 1.0;"/><polygon fill="#A80036" points="68.5,1062.0571,64.5,1068.0571,68.5,1074.0571,72.5,1068.0571,68.5,1062.0571" style="stroke: #A80036; stroke-width: 1.0;"/><text fill="#000000" font-family="sans-serif" font-size="13" lengthAdjust="spacingAndGlyphs" textLength="48" x="69.5" y="1105.5684">choices</text><text fill="#000000" font-family="sans-serif" font-size="13" lengthAdjust="spacingAndGlyphs" textLength="6" x="62.0219" y="1128.2722">*</text><!--
@startuml


class Query {
  + name: String
  + identifier: String
  + type: String
  + result_entity_name: String?
  + description: String
  + cardinality: String
  + snippet: String
  + {get} oneliner: Boolean
}





Query - - "0..1" Entity : result_entity




class Entity {
  + name: String
  + namespace: String
  + identifier: String
  + description: String
  + value_object: Boolean
  + {get} class_name: String
  + {get} inherited: Boolean
  + {get} top_level: Boolean
  + {get} supports_namespace: Boolean
  + {get} fqn: String
  + {get} primary_key_names: List<String>
}





Entity *- - "1..*" Property : properties






Entity *- - "*" Relationship : relationships






Entity *- - "*" Query : queries




class Property {
  + name: String
  + identifier: String
  + primary_key: Boolean
  + type: String
  + domain_type_name: String?
  + size: Int
  + optional: Boolean
  + description: String
  + default_value: String?
  + example_value: String
  + table_column_name: String
  + snippet: String?
  + multiple: Boolean
  + {get} property_name: String
  + {get} class_name: String
  + {get} nullable: Boolean
}





Property *- - "0..1" ValueDomain : domain






Property - - "0..1" ValueDomainType : domain_type




class Relationship {
  + name: String
  + identifier: String
  + cardinality: String
  + reference_entity_name: String
  + aggregate: Boolean
  + inherited: Boolean
  + description: String
  + snippet: String?
  + {get} class_name: String
  + {get} multiple: Boolean
  + {get} allows_empty: Boolean
  + {get} nullable: Boolean
  + {get} property_name: String
  + {get} bidirectional: Boolean
  + {get} recursive: Boolean
}





Relationship *- - "*" PropertyMapping : mappings






Relationship - - "1" Entity : reference_entity




class ValueDomainType {
  + name: String
  + type: String
  + description: String
}





ValueDomainType *- - "1" ValueDomain : domain




class ValueDomain {
  + pattern: String?
}





ValueDomain *- - "*" ValueItem : choices




class ValueItem {
  + value: String
  + label: String
  + description: String
}



class PropertyMapping {
  + from: String
  + to: String
  + null_value: String?
}



class NamedValue {
  + name: String
  + expression: String
}



class NamedParam {
  + name: String
  + type: String
  + description: String
}


@enduml

PlantUML version 1.2019.03(Sun Mar 10 20:04:44 JST 2019)
(GPL source distribution)
Java Runtime: OpenJDK Runtime Environment
JVM: OpenJDK 64-Bit Server VM
Java Version: 1.8.0_172-b01
Operating System: Mac OS X
OS Version: 10.14.4
Default Encoding: UTF-8
Language: en
Country: JP
--></g></svg>