<?xml version="1.0" encoding="UTF-8" standalone="no"?><svg xmlns="http://www.w3.org/2000/svg" xmlns:xlink="http://www.w3.org/1999/xlink" contentScriptType="application/ecmascript" contentStyleType="text/css" height="869px" preserveAspectRatio="none" style="width:791px;height:869px;" version="1.1" viewBox="0 0 791 869" width="791px" zoomAndPan="magnify"><defs><filter height="300%" id="fr6bs4t00onz3" width="300%" x="-1" y="-1"><feGaussianBlur result="blurOut" stdDeviation="2.0"/><feColorMatrix in="blurOut" result="blurOut2" type="matrix" values="0 0 0 0 0 0 0 0 0 0 0 0 0 0 0 0 0 0 .4 0"/><feOffset dx="4.0" dy="4.0" in="blurOut2" result="blurOut3"/><feBlend in="SourceGraphic" in2="blurOut3" mode="normal"/></filter></defs><g><!--class Query--><rect fill="#FEFECE" filter="url(#fr6bs4t00onz3)" height="151.6406" id="Query" style="stroke: #A80036; stroke-width: 1.5;" width="171" x="6" y="327.5"/><ellipse cx="70.25" cy="343.5" fill="#ADD1B2" rx="11" ry="11" style="stroke: #A80036; stroke-width: 1.0;"/><path d="M72.7231,349.6431 Q72.1421,349.9419 71.5029,350.0913 Q70.8638,350.2407 70.1582,350.2407 Q67.6514,350.2407 66.3315,348.5889 Q65.0117,346.937 65.0117,343.8159 Q65.0117,340.6865 66.3315,339.0347 Q67.6514,337.3828 70.1582,337.3828 Q70.8638,337.3828 71.5112,337.5322 Q72.1587,337.6816 72.7231,337.9805 L72.7231,340.7031 Q72.0923,340.1221 71.4988,339.8523 Q70.9053,339.5825 70.2744,339.5825 Q68.9297,339.5825 68.2449,340.6492 Q67.5601,341.7158 67.5601,343.8159 Q67.5601,345.9077 68.2449,346.9744 Q68.9297,348.041 70.2744,348.041 Q70.9053,348.041 71.4988,347.7712 Q72.0923,347.5015 72.7231,346.9204 Z "/><text fill="#000000" font-family="sans-serif" font-size="12" lengthAdjust="spacingAndGlyphs" textLength="34" x="90.75" y="348.0352">Query</text><line style="stroke: #A80036; stroke-width: 1.5;" x1="7" x2="176" y1="359.5" y2="359.5"/><ellipse cx="17" cy="371.4775" fill="none" rx="3" ry="3" style="stroke: #038048; stroke-width: 1.0;"/><text fill="#000000" font-family="sans-serif" font-size="11" lengthAdjust="spacingAndGlyphs" textLength="67" x="26" y="374.1348">name: String</text><ellipse cx="17" cy="384.4326" fill="none" rx="3" ry="3" style="stroke: #038048; stroke-width: 1.0;"/><text fill="#000000" font-family="sans-serif" font-size="11" lengthAdjust="spacingAndGlyphs" textLength="86" x="26" y="387.0898">identifier: String</text><ellipse cx="17" cy="397.3877" fill="none" rx="3" ry="3" style="stroke: #038048; stroke-width: 1.0;"/><text fill="#000000" font-family="sans-serif" font-size="11" lengthAdjust="spacingAndGlyphs" textLength="61" x="26" y="400.0449">type: String</text><ellipse cx="17" cy="410.3428" fill="none" rx="3" ry="3" style="stroke: #038048; stroke-width: 1.0;"/><text fill="#000000" font-family="sans-serif" font-size="11" lengthAdjust="spacingAndGlyphs" textLength="145" x="26" y="413">result_entity_name: String?</text><ellipse cx="17" cy="423.2979" fill="none" rx="3" ry="3" style="stroke: #038048; stroke-width: 1.0;"/><text fill="#000000" font-family="sans-serif" font-size="11" lengthAdjust="spacingAndGlyphs" textLength="99" x="26" y="425.9551">description: String</text><ellipse cx="17" cy="436.2529" fill="none" rx="3" ry="3" style="stroke: #038048; stroke-width: 1.0;"/><text fill="#000000" font-family="sans-serif" font-size="11" lengthAdjust="spacingAndGlyphs" textLength="94" x="26" y="438.9102">cardinality: String</text><ellipse cx="17" cy="449.208" fill="none" rx="3" ry="3" style="stroke: #038048; stroke-width: 1.0;"/><text fill="#000000" font-family="sans-serif" font-size="11" lengthAdjust="spacingAndGlyphs" textLength="78" x="26" y="451.8652">snippet: String</text><ellipse cx="17" cy="462.1631" fill="none" rx="3" ry="3" style="stroke: #038048; stroke-width: 1.0;"/><text fill="#000000" font-family="sans-serif" font-size="11" lengthAdjust="spacingAndGlyphs" textLength="120" x="26" y="464.8203">{get} oneliner: Boolean</text><line style="stroke: #A80036; stroke-width: 1.5;" x1="7" x2="176" y1="471.1406" y2="471.1406"/><!--class Entity--><rect fill="#FEFECE" filter="url(#fr6bs4t00onz3)" height="190.5059" id="Entity" style="stroke: #A80036; stroke-width: 1.5;" width="236" x="181.5" y="8"/><ellipse cx="279.75" cy="24" fill="#ADD1B2" rx="11" ry="11" style="stroke: #A80036; stroke-width: 1.0;"/><path d="M282.2231,30.1431 Q281.6421,30.4419 281.0029,30.5913 Q280.3638,30.7407 279.6582,30.7407 Q277.1514,30.7407 275.8315,29.0889 Q274.5117,27.437 274.5117,24.3159 Q274.5117,21.1865 275.8315,19.5347 Q277.1514,17.8828 279.6582,17.8828 Q280.3638,17.8828 281.0112,18.0322 Q281.6587,18.1816 282.2231,18.4805 L282.2231,21.2031 Q281.5923,20.6221 280.9988,20.3523 Q280.4053,20.0825 279.7744,20.0825 Q278.4297,20.0825 277.7449,21.1492 Q277.0601,22.2158 277.0601,24.3159 Q277.0601,26.4077 277.7449,27.4744 Q278.4297,28.541 279.7744,28.541 Q280.4053,28.541 280.9988,28.2712 Q281.5923,28.0015 282.2231,27.4204 Z "/><text fill="#000000" font-family="sans-serif" font-size="12" lengthAdjust="spacingAndGlyphs" textLength="31" x="300.25" y="28.5352">Entity</text><line style="stroke: #A80036; stroke-width: 1.5;" x1="182.5" x2="416.5" y1="40" y2="40"/><ellipse cx="192.5" cy="51.9775" fill="none" rx="3" ry="3" style="stroke: #038048; stroke-width: 1.0;"/><text fill="#000000" font-family="sans-serif" font-size="11" lengthAdjust="spacingAndGlyphs" textLength="67" x="201.5" y="54.6348">name: String</text><ellipse cx="192.5" cy="64.9326" fill="none" rx="3" ry="3" style="stroke: #038048; stroke-width: 1.0;"/><text fill="#000000" font-family="sans-serif" font-size="11" lengthAdjust="spacingAndGlyphs" textLength="98" x="201.5" y="67.5898">namespace: String</text><ellipse cx="192.5" cy="77.8877" fill="none" rx="3" ry="3" style="stroke: #038048; stroke-width: 1.0;"/><text fill="#000000" font-family="sans-serif" font-size="11" lengthAdjust="spacingAndGlyphs" textLength="86" x="201.5" y="80.5449">identifier: String</text><ellipse cx="192.5" cy="90.8428" fill="none" rx="3" ry="3" style="stroke: #038048; stroke-width: 1.0;"/><text fill="#000000" font-family="sans-serif" font-size="11" lengthAdjust="spacingAndGlyphs" textLength="99" x="201.5" y="93.5">description: String</text><ellipse cx="192.5" cy="103.7979" fill="none" rx="3" ry="3" style="stroke: #038048; stroke-width: 1.0;"/><text fill="#000000" font-family="sans-serif" font-size="11" lengthAdjust="spacingAndGlyphs" textLength="115" x="201.5" y="106.4551">value_object: Boolean</text><ellipse cx="192.5" cy="116.7529" fill="none" rx="3" ry="3" style="stroke: #038048; stroke-width: 1.0;"/><text fill="#000000" font-family="sans-serif" font-size="11" lengthAdjust="spacingAndGlyphs" textLength="128" x="201.5" y="119.4102">{get} class_name: String</text><ellipse cx="192.5" cy="129.708" fill="none" rx="3" ry="3" style="stroke: #038048; stroke-width: 1.0;"/><text fill="#000000" font-family="sans-serif" font-size="11" lengthAdjust="spacingAndGlyphs" textLength="124" x="201.5" y="132.3652">{get} inherited: Boolean</text><ellipse cx="192.5" cy="142.6631" fill="none" rx="3" ry="3" style="stroke: #038048; stroke-width: 1.0;"/><text fill="#000000" font-family="sans-serif" font-size="11" lengthAdjust="spacingAndGlyphs" textLength="124" x="201.5" y="145.3203">{get} top_level: Boolean</text><ellipse cx="192.5" cy="155.6182" fill="none" rx="3" ry="3" style="stroke: #038048; stroke-width: 1.0;"/><text fill="#000000" font-family="sans-serif" font-size="11" lengthAdjust="spacingAndGlyphs" textLength="191" x="201.5" y="158.2754">{get} supports_namespace: Boolean</text><ellipse cx="192.5" cy="168.5732" fill="none" rx="3" ry="3" style="stroke: #038048; stroke-width: 1.0;"/><text fill="#000000" font-family="sans-serif" font-size="11" lengthAdjust="spacingAndGlyphs" textLength="84" x="201.5" y="171.2305">{get} fqn: String</text><ellipse cx="192.5" cy="181.5283" fill="none" rx="3" ry="3" style="stroke: #038048; stroke-width: 1.0;"/><text fill="#000000" font-family="sans-serif" font-size="11" lengthAdjust="spacingAndGlyphs" textLength="210" x="201.5" y="184.1855">{get} primary_key_names: List&lt;String&gt;</text><line style="stroke: #A80036; stroke-width: 1.5;" x1="182.5" x2="416.5" y1="190.5059" y2="190.5059"/><!--class Property--><rect fill="#FEFECE" filter="url(#fr6bs4t00onz3)" height="255.2813" id="Property" style="stroke: #A80036; stroke-width: 1.5;" width="174" x="212.5" y="276"/><ellipse cx="270.75" cy="292" fill="#ADD1B2" rx="11" ry="11" style="stroke: #A80036; stroke-width: 1.0;"/><path d="M273.2231,298.1431 Q272.6421,298.4419 272.0029,298.5913 Q271.3638,298.7407 270.6582,298.7407 Q268.1514,298.7407 266.8315,297.0889 Q265.5117,295.437 265.5117,292.3159 Q265.5117,289.1865 266.8315,287.5347 Q268.1514,285.8828 270.6582,285.8828 Q271.3638,285.8828 272.0112,286.0322 Q272.6587,286.1816 273.2231,286.4805 L273.2231,289.2031 Q272.5923,288.6221 271.9988,288.3523 Q271.4053,288.0825 270.7744,288.0825 Q269.4297,288.0825 268.7449,289.1492 Q268.0601,290.2158 268.0601,292.3159 Q268.0601,294.4077 268.7449,295.4744 Q269.4297,296.541 270.7744,296.541 Q271.4053,296.541 271.9988,296.2712 Q272.5923,296.0015 273.2231,295.4204 Z "/><text fill="#000000" font-family="sans-serif" font-size="12" lengthAdjust="spacingAndGlyphs" textLength="49" x="291.25" y="296.5352">Property</text><line style="stroke: #A80036; stroke-width: 1.5;" x1="213.5" x2="385.5" y1="308" y2="308"/><ellipse cx="223.5" cy="319.9775" fill="none" rx="3" ry="3" style="stroke: #038048; stroke-width: 1.0;"/><text fill="#000000" font-family="sans-serif" font-size="11" lengthAdjust="spacingAndGlyphs" textLength="67" x="232.5" y="322.6348">name: String</text><ellipse cx="223.5" cy="332.9326" fill="none" rx="3" ry="3" style="stroke: #038048; stroke-width: 1.0;"/><text fill="#000000" font-family="sans-serif" font-size="11" lengthAdjust="spacingAndGlyphs" textLength="86" x="232.5" y="335.5898">identifier: String</text><ellipse cx="223.5" cy="345.8877" fill="none" rx="3" ry="3" style="stroke: #038048; stroke-width: 1.0;"/><text fill="#000000" font-family="sans-serif" font-size="11" lengthAdjust="spacingAndGlyphs" textLength="114" x="232.5" y="348.5449">primary_key: Boolean</text><ellipse cx="223.5" cy="358.8428" fill="none" rx="3" ry="3" style="stroke: #038048; stroke-width: 1.0;"/><text fill="#000000" font-family="sans-serif" font-size="11" lengthAdjust="spacingAndGlyphs" textLength="61" x="232.5" y="361.5">type: String</text><ellipse cx="223.5" cy="371.7979" fill="none" rx="3" ry="3" style="stroke: #038048; stroke-width: 1.0;"/><text fill="#000000" font-family="sans-serif" font-size="11" lengthAdjust="spacingAndGlyphs" textLength="147" x="232.5" y="374.4551">domain_type_name: String?</text><ellipse cx="223.5" cy="384.7529" fill="none" rx="3" ry="3" style="stroke: #038048; stroke-width: 1.0;"/><text fill="#000000" font-family="sans-serif" font-size="11" lengthAdjust="spacingAndGlyphs" textLength="41" x="232.5" y="387.4102">size: Int</text><ellipse cx="223.5" cy="397.708" fill="none" rx="3" ry="3" style="stroke: #038048; stroke-width: 1.0;"/><text fill="#000000" font-family="sans-serif" font-size="11" lengthAdjust="spacingAndGlyphs" textLength="92" x="232.5" y="400.3652">optional: Boolean</text><ellipse cx="223.5" cy="410.6631" fill="none" rx="3" ry="3" style="stroke: #038048; stroke-width: 1.0;"/><text fill="#000000" font-family="sans-serif" font-size="11" lengthAdjust="spacingAndGlyphs" textLength="99" x="232.5" y="413.3203">description: String</text><ellipse cx="223.5" cy="423.6182" fill="none" rx="3" ry="3" style="stroke: #038048; stroke-width: 1.0;"/><text fill="#000000" font-family="sans-serif" font-size="11" lengthAdjust="spacingAndGlyphs" textLength="114" x="232.5" y="426.2754">default_value: String?</text><ellipse cx="223.5" cy="436.5732" fill="none" rx="3" ry="3" style="stroke: #038048; stroke-width: 1.0;"/><text fill="#000000" font-family="sans-serif" font-size="11" lengthAdjust="spacingAndGlyphs" textLength="117" x="232.5" y="439.2305">example_value: String</text><ellipse cx="223.5" cy="449.5283" fill="none" rx="3" ry="3" style="stroke: #038048; stroke-width: 1.0;"/><text fill="#000000" font-family="sans-serif" font-size="11" lengthAdjust="spacingAndGlyphs" textLength="145" x="232.5" y="452.1855">table_column_name: String</text><ellipse cx="223.5" cy="462.4834" fill="none" rx="3" ry="3" style="stroke: #038048; stroke-width: 1.0;"/><text fill="#000000" font-family="sans-serif" font-size="11" lengthAdjust="spacingAndGlyphs" textLength="83" x="232.5" y="465.1406">snippet: String?</text><ellipse cx="223.5" cy="475.4385" fill="none" rx="3" ry="3" style="stroke: #038048; stroke-width: 1.0;"/><text fill="#000000" font-family="sans-serif" font-size="11" lengthAdjust="spacingAndGlyphs" textLength="91" x="232.5" y="478.0957">multiple: Boolean</text><ellipse cx="223.5" cy="488.3936" fill="none" rx="3" ry="3" style="stroke: #038048; stroke-width: 1.0;"/><text fill="#000000" font-family="sans-serif" font-size="11" lengthAdjust="spacingAndGlyphs" textLength="148" x="232.5" y="491.0508">{get} property_name: String</text><ellipse cx="223.5" cy="501.3486" fill="none" rx="3" ry="3" style="stroke: #038048; stroke-width: 1.0;"/><text fill="#000000" font-family="sans-serif" font-size="11" lengthAdjust="spacingAndGlyphs" textLength="128" x="232.5" y="504.0059">{get} class_name: String</text><ellipse cx="223.5" cy="514.3037" fill="none" rx="3" ry="3" style="stroke: #038048; stroke-width: 1.0;"/><text fill="#000000" font-family="sans-serif" font-size="11" lengthAdjust="spacingAndGlyphs" textLength="118" x="232.5" y="516.9609">{get} nullable: Boolean</text><line style="stroke: #A80036; stroke-width: 1.5;" x1="213.5" x2="385.5" y1="523.2813" y2="523.2813"/><!--class Relationship--><rect fill="#FEFECE" filter="url(#fr6bs4t00onz3)" height="242.3262" id="Relationship" style="stroke: #A80036; stroke-width: 1.5;" width="186" x="594.5" y="282.5"/><ellipse cx="648.25" cy="298.5" fill="#ADD1B2" rx="11" ry="11" style="stroke: #A80036; stroke-width: 1.0;"/><path d="M650.7231,304.6431 Q650.1421,304.9419 649.5029,305.0913 Q648.8638,305.2407 648.1582,305.2407 Q645.6514,305.2407 644.3315,303.5889 Q643.0117,301.937 643.0117,298.8159 Q643.0117,295.6865 644.3315,294.0347 Q645.6514,292.3828 648.1582,292.3828 Q648.8638,292.3828 649.5112,292.5322 Q650.1587,292.6816 650.7231,292.9805 L650.7231,295.7031 Q650.0923,295.1221 649.4988,294.8523 Q648.9053,294.5825 648.2744,294.5825 Q646.9297,294.5825 646.2449,295.6492 Q645.5601,296.7158 645.5601,298.8159 Q645.5601,300.9077 646.2449,301.9744 Q646.9297,303.041 648.2744,303.041 Q648.9053,303.041 649.4988,302.7712 Q650.0923,302.5015 650.7231,301.9204 Z "/><text fill="#000000" font-family="sans-serif" font-size="12" lengthAdjust="spacingAndGlyphs" textLength="70" x="668.75" y="303.0352">Relationship</text><line style="stroke: #A80036; stroke-width: 1.5;" x1="595.5" x2="779.5" y1="314.5" y2="314.5"/><ellipse cx="605.5" cy="326.4775" fill="none" rx="3" ry="3" style="stroke: #038048; stroke-width: 1.0;"/><text fill="#000000" font-family="sans-serif" font-size="11" lengthAdjust="spacingAndGlyphs" textLength="67" x="614.5" y="329.1348">name: String</text><ellipse cx="605.5" cy="339.4326" fill="none" rx="3" ry="3" style="stroke: #038048; stroke-width: 1.0;"/><text fill="#000000" font-family="sans-serif" font-size="11" lengthAdjust="spacingAndGlyphs" textLength="86" x="614.5" y="342.0898">identifier: String</text><ellipse cx="605.5" cy="352.3877" fill="none" rx="3" ry="3" style="stroke: #038048; stroke-width: 1.0;"/><text fill="#000000" font-family="sans-serif" font-size="11" lengthAdjust="spacingAndGlyphs" textLength="94" x="614.5" y="355.0449">cardinality: String</text><ellipse cx="605.5" cy="365.3428" fill="none" rx="3" ry="3" style="stroke: #038048; stroke-width: 1.0;"/><text fill="#000000" font-family="sans-serif" font-size="11" lengthAdjust="spacingAndGlyphs" textLength="160" x="614.5" y="368">reference_entity_name: String</text><ellipse cx="605.5" cy="378.2979" fill="none" rx="3" ry="3" style="stroke: #038048; stroke-width: 1.0;"/><text fill="#000000" font-family="sans-serif" font-size="11" lengthAdjust="spacingAndGlyphs" textLength="102" x="614.5" y="380.9551">aggregate: Boolean</text><ellipse cx="605.5" cy="391.2529" fill="none" rx="3" ry="3" style="stroke: #038048; stroke-width: 1.0;"/><text fill="#000000" font-family="sans-serif" font-size="11" lengthAdjust="spacingAndGlyphs" textLength="96" x="614.5" y="393.9102">inherited: Boolean</text><ellipse cx="605.5" cy="404.208" fill="none" rx="3" ry="3" style="stroke: #038048; stroke-width: 1.0;"/><text fill="#000000" font-family="sans-serif" font-size="11" lengthAdjust="spacingAndGlyphs" textLength="99" x="614.5" y="406.8652">description: String</text><ellipse cx="605.5" cy="417.1631" fill="none" rx="3" ry="3" style="stroke: #038048; stroke-width: 1.0;"/><text fill="#000000" font-family="sans-serif" font-size="11" lengthAdjust="spacingAndGlyphs" textLength="83" x="614.5" y="419.8203">snippet: String?</text><ellipse cx="605.5" cy="430.1182" fill="none" rx="3" ry="3" style="stroke: #038048; stroke-width: 1.0;"/><text fill="#000000" font-family="sans-serif" font-size="11" lengthAdjust="spacingAndGlyphs" textLength="128" x="614.5" y="432.7754">{get} class_name: String</text><ellipse cx="605.5" cy="443.0732" fill="none" rx="3" ry="3" style="stroke: #038048; stroke-width: 1.0;"/><text fill="#000000" font-family="sans-serif" font-size="11" lengthAdjust="spacingAndGlyphs" textLength="119" x="614.5" y="445.7305">{get} multiple: Boolean</text><ellipse cx="605.5" cy="456.0283" fill="none" rx="3" ry="3" style="stroke: #038048; stroke-width: 1.0;"/><text fill="#000000" font-family="sans-serif" font-size="11" lengthAdjust="spacingAndGlyphs" textLength="148" x="614.5" y="458.6855">{get} allows_empty: Boolean</text><ellipse cx="605.5" cy="468.9834" fill="none" rx="3" ry="3" style="stroke: #038048; stroke-width: 1.0;"/><text fill="#000000" font-family="sans-serif" font-size="11" lengthAdjust="spacingAndGlyphs" textLength="118" x="614.5" y="471.6406">{get} nullable: Boolean</text><ellipse cx="605.5" cy="481.9385" fill="none" rx="3" ry="3" style="stroke: #038048; stroke-width: 1.0;"/><text fill="#000000" font-family="sans-serif" font-size="11" lengthAdjust="spacingAndGlyphs" textLength="148" x="614.5" y="484.5957">{get} property_name: String</text><ellipse cx="605.5" cy="494.8936" fill="none" rx="3" ry="3" style="stroke: #038048; stroke-width: 1.0;"/><text fill="#000000" font-family="sans-serif" font-size="11" lengthAdjust="spacingAndGlyphs" textLength="143" x="614.5" y="497.5508">{get} bidirectional: Boolean</text><ellipse cx="605.5" cy="507.8486" fill="none" rx="3" ry="3" style="stroke: #038048; stroke-width: 1.0;"/><text fill="#000000" font-family="sans-serif" font-size="11" lengthAdjust="spacingAndGlyphs" textLength="126" x="614.5" y="510.5059">{get} recursive: Boolean</text><line style="stroke: #A80036; stroke-width: 1.5;" x1="595.5" x2="779.5" y1="516.8262" y2="516.8262"/><!--class ValueDomain--><rect fill="#FEFECE" filter="url(#fr6bs4t00onz3)" height="60.9551" id="ValueDomain" style="stroke: #A80036; stroke-width: 1.5;" width="108" x="366.5" y="621"/><ellipse cx="381.5" cy="637" fill="#ADD1B2" rx="11" ry="11" style="stroke: #A80036; stroke-width: 1.0;"/><path d="M383.9731,643.1431 Q383.3921,643.4419 382.7529,643.5913 Q382.1138,643.7407 381.4082,643.7407 Q378.9014,643.7407 377.5815,642.0889 Q376.2617,640.437 376.2617,637.3159 Q376.2617,634.1865 377.5815,632.5347 Q378.9014,630.8828 381.4082,630.8828 Q382.1138,630.8828 382.7612,631.0322 Q383.4087,631.1816 383.9731,631.4805 L383.9731,634.2031 Q383.3423,633.6221 382.7488,633.3523 Q382.1553,633.0825 381.5244,633.0825 Q380.1797,633.0825 379.4949,634.1492 Q378.8101,635.2158 378.8101,637.3159 Q378.8101,639.4077 379.4949,640.4744 Q380.1797,641.541 381.5244,641.541 Q382.1553,641.541 382.7488,641.2712 Q383.3423,641.0015 383.9731,640.4204 Z "/><text fill="#000000" font-family="sans-serif" font-size="12" lengthAdjust="spacingAndGlyphs" textLength="76" x="395.5" y="641.5352">ValueDomain</text><line style="stroke: #A80036; stroke-width: 1.5;" x1="367.5" x2="473.5" y1="653" y2="653"/><ellipse cx="377.5" cy="664.9775" fill="none" rx="3" ry="3" style="stroke: #038048; stroke-width: 1.0;"/><text fill="#000000" font-family="sans-serif" font-size="11" lengthAdjust="spacingAndGlyphs" textLength="82" x="386.5" y="667.6348">pattern: String?</text><line style="stroke: #A80036; stroke-width: 1.5;" x1="367.5" x2="473.5" y1="673.9551" y2="673.9551"/><!--class PropertyMapping--><rect fill="#FEFECE" filter="url(#fr6bs4t00onz3)" height="86.8652" id="PropertyMapping" style="stroke: #A80036; stroke-width: 1.5;" width="131" x="622" y="608"/><ellipse cx="637" cy="624" fill="#ADD1B2" rx="11" ry="11" style="stroke: #A80036; stroke-width: 1.0;"/><path d="M639.4731,630.1431 Q638.8921,630.4419 638.2529,630.5913 Q637.6138,630.7407 636.9082,630.7407 Q634.4014,630.7407 633.0815,629.0889 Q631.7617,627.437 631.7617,624.3159 Q631.7617,621.1865 633.0815,619.5347 Q634.4014,617.8828 636.9082,617.8828 Q637.6138,617.8828 638.2612,618.0322 Q638.9087,618.1816 639.4731,618.4805 L639.4731,621.2031 Q638.8423,620.6221 638.2488,620.3523 Q637.6553,620.0825 637.0244,620.0825 Q635.6797,620.0825 634.9949,621.1492 Q634.3101,622.2158 634.3101,624.3159 Q634.3101,626.4077 634.9949,627.4744 Q635.6797,628.541 637.0244,628.541 Q637.6553,628.541 638.2488,628.2712 Q638.8423,628.0015 639.4731,627.4204 Z "/><text fill="#000000" font-family="sans-serif" font-size="12" lengthAdjust="spacingAndGlyphs" textLength="99" x="651" y="628.5352">PropertyMapping</text><line style="stroke: #A80036; stroke-width: 1.5;" x1="623" x2="752" y1="640" y2="640"/><ellipse cx="633" cy="651.9775" fill="none" rx="3" ry="3" style="stroke: #038048; stroke-width: 1.0;"/><text fill="#000000" font-family="sans-serif" font-size="11" lengthAdjust="spacingAndGlyphs" textLength="64" x="642" y="654.6348">from: String</text><ellipse cx="633" cy="664.9326" fill="none" rx="3" ry="3" style="stroke: #038048; stroke-width: 1.0;"/><text fill="#000000" font-family="sans-serif" font-size="11" lengthAdjust="spacingAndGlyphs" textLength="49" x="642" y="667.5898">to: String</text><ellipse cx="633" cy="677.8877" fill="none" rx="3" ry="3" style="stroke: #038048; stroke-width: 1.0;"/><text fill="#000000" font-family="sans-serif" font-size="11" lengthAdjust="spacingAndGlyphs" textLength="97" x="642" y="680.5449">null_value: String?</text><line style="stroke: #A80036; stroke-width: 1.5;" x1="623" x2="752" y1="686.8652" y2="686.8652"/><!--class ValueDomainType--><rect fill="#FEFECE" filter="url(#fr6bs4t00onz3)" height="86.8652" id="ValueDomainType" style="stroke: #A80036; stroke-width: 1.5;" width="137" x="422" y="360"/><ellipse cx="437" cy="376" fill="#ADD1B2" rx="11" ry="11" style="stroke: #A80036; stroke-width: 1.0;"/><path d="M439.4731,382.1431 Q438.8921,382.4419 438.2529,382.5913 Q437.6138,382.7407 436.9082,382.7407 Q434.4014,382.7407 433.0815,381.0889 Q431.7617,379.437 431.7617,376.3159 Q431.7617,373.1865 433.0815,371.5347 Q434.4014,369.8828 436.9082,369.8828 Q437.6138,369.8828 438.2612,370.0322 Q438.9087,370.1816 439.4731,370.4805 L439.4731,373.2031 Q438.8423,372.6221 438.2488,372.3523 Q437.6553,372.0825 437.0244,372.0825 Q435.6797,372.0825 434.9949,373.1492 Q434.3101,374.2158 434.3101,376.3159 Q434.3101,378.4077 434.9949,379.4744 Q435.6797,380.541 437.0244,380.541 Q437.6553,380.541 438.2488,380.2712 Q438.8423,380.0015 439.4731,379.4204 Z "/><text fill="#000000" font-family="sans-serif" font-size="12" lengthAdjust="spacingAndGlyphs" textLength="105" x="451" y="380.5352">ValueDomainType</text><line style="stroke: #A80036; stroke-width: 1.5;" x1="423" x2="558" y1="392" y2="392"/><ellipse cx="433" cy="403.9775" fill="none" rx="3" ry="3" style="stroke: #038048; stroke-width: 1.0;"/><text fill="#000000" font-family="sans-serif" font-size="11" lengthAdjust="spacingAndGlyphs" textLength="67" x="442" y="406.6348">name: String</text><ellipse cx="433" cy="416.9326" fill="none" rx="3" ry="3" style="stroke: #038048; stroke-width: 1.0;"/><text fill="#000000" font-family="sans-serif" font-size="11" lengthAdjust="spacingAndGlyphs" textLength="61" x="442" y="419.5898">type: String</text><ellipse cx="433" cy="429.8877" fill="none" rx="3" ry="3" style="stroke: #038048; stroke-width: 1.0;"/><text fill="#000000" font-family="sans-serif" font-size="11" lengthAdjust="spacingAndGlyphs" textLength="99" x="442" y="432.5449">description: String</text><line style="stroke: #A80036; stroke-width: 1.5;" x1="423" x2="558" y1="438.8652" y2="438.8652"/><!--class ValueItem--><rect fill="#FEFECE" filter="url(#fr6bs4t00onz3)" height="86.8652" id="ValueItem" style="stroke: #A80036; stroke-width: 1.5;" width="125" x="358" y="772"/><ellipse cx="389.2" cy="788" fill="#ADD1B2" rx="11" ry="11" style="stroke: #A80036; stroke-width: 1.0;"/><path d="M391.6731,794.1431 Q391.0921,794.4419 390.4529,794.5913 Q389.8138,794.7407 389.1082,794.7407 Q386.6014,794.7407 385.2815,793.0889 Q383.9617,791.437 383.9617,788.3159 Q383.9617,785.1865 385.2815,783.5347 Q386.6014,781.8828 389.1082,781.8828 Q389.8138,781.8828 390.4612,782.0322 Q391.1087,782.1816 391.6731,782.4805 L391.6731,785.2031 Q391.0423,784.6221 390.4488,784.3523 Q389.8553,784.0825 389.2244,784.0825 Q387.8797,784.0825 387.1949,785.1492 Q386.5101,786.2158 386.5101,788.3159 Q386.5101,790.4077 387.1949,791.4744 Q387.8797,792.541 389.2244,792.541 Q389.8553,792.541 390.4488,792.2712 Q391.0423,792.0015 391.6731,791.4204 Z "/><text fill="#000000" font-family="sans-serif" font-size="12" lengthAdjust="spacingAndGlyphs" textLength="57" x="406.8" y="792.5352">ValueItem</text><line style="stroke: #A80036; stroke-width: 1.5;" x1="359" x2="482" y1="804" y2="804"/><ellipse cx="369" cy="815.9775" fill="none" rx="3" ry="3" style="stroke: #038048; stroke-width: 1.0;"/><text fill="#000000" font-family="sans-serif" font-size="11" lengthAdjust="spacingAndGlyphs" textLength="66" x="378" y="818.6348">value: String</text><ellipse cx="369" cy="828.9326" fill="none" rx="3" ry="3" style="stroke: #038048; stroke-width: 1.0;"/><text fill="#000000" font-family="sans-serif" font-size="11" lengthAdjust="spacingAndGlyphs" textLength="63" x="378" y="831.5898">label: String</text><ellipse cx="369" cy="841.8877" fill="none" rx="3" ry="3" style="stroke: #038048; stroke-width: 1.0;"/><text fill="#000000" font-family="sans-serif" font-size="11" lengthAdjust="spacingAndGlyphs" textLength="99" x="378" y="844.5449">description: String</text><line style="stroke: #A80036; stroke-width: 1.5;" x1="359" x2="482" y1="850.8652" y2="850.8652"/><!--class NamedValue--><rect fill="#FEFECE" filter="url(#fr6bs4t00onz3)" height="73.9102" id="NamedValue" style="stroke: #A80036; stroke-width: 1.5;" width="124" x="452.5" y="66.5"/><ellipse cx="475.6" cy="82.5" fill="#ADD1B2" rx="11" ry="11" style="stroke: #A80036; stroke-width: 1.0;"/><path d="M478.0731,88.6431 Q477.4921,88.9419 476.8529,89.0913 Q476.2138,89.2407 475.5082,89.2407 Q473.0014,89.2407 471.6815,87.5889 Q470.3617,85.937 470.3617,82.8159 Q470.3617,79.6865 471.6815,78.0347 Q473.0014,76.3828 475.5082,76.3828 Q476.2138,76.3828 476.8612,76.5322 Q477.5087,76.6816 478.0731,76.9805 L478.0731,79.7031 Q477.4423,79.1221 476.8488,78.8523 Q476.2553,78.5825 475.6244,78.5825 Q474.2797,78.5825 473.5949,79.6492 Q472.9101,80.7158 472.9101,82.8159 Q472.9101,84.9077 473.5949,85.9744 Q474.2797,87.041 475.6244,87.041 Q476.2553,87.041 476.8488,86.7712 Q477.4423,86.5015 478.0731,85.9204 Z "/><text fill="#000000" font-family="sans-serif" font-size="12" lengthAdjust="spacingAndGlyphs" textLength="74" x="491.4" y="87.0352">NamedValue</text><line style="stroke: #A80036; stroke-width: 1.5;" x1="453.5" x2="575.5" y1="98.5" y2="98.5"/><ellipse cx="463.5" cy="110.4775" fill="none" rx="3" ry="3" style="stroke: #038048; stroke-width: 1.0;"/><text fill="#000000" font-family="sans-serif" font-size="11" lengthAdjust="spacingAndGlyphs" textLength="67" x="472.5" y="113.1348">name: String</text><ellipse cx="463.5" cy="123.4326" fill="none" rx="3" ry="3" style="stroke: #038048; stroke-width: 1.0;"/><text fill="#000000" font-family="sans-serif" font-size="11" lengthAdjust="spacingAndGlyphs" textLength="98" x="472.5" y="126.0898">expression: String</text><line style="stroke: #A80036; stroke-width: 1.5;" x1="453.5" x2="575.5" y1="132.4102" y2="132.4102"/><!--class NamedParam--><rect fill="#FEFECE" filter="url(#fr6bs4t00onz3)" height="86.8652" id="NamedParam" style="stroke: #A80036; stroke-width: 1.5;" width="125" x="612" y="60"/><ellipse cx="633.3" cy="76" fill="#ADD1B2" rx="11" ry="11" style="stroke: #A80036; stroke-width: 1.0;"/><path d="M635.7731,82.1431 Q635.1921,82.4419 634.5529,82.5913 Q633.9138,82.7407 633.2082,82.7407 Q630.7014,82.7407 629.3815,81.0889 Q628.0617,79.437 628.0617,76.3159 Q628.0617,73.1865 629.3815,71.5347 Q630.7014,69.8828 633.2082,69.8828 Q633.9138,69.8828 634.5612,70.0322 Q635.2087,70.1816 635.7731,70.4805 L635.7731,73.2031 Q635.1423,72.6221 634.5488,72.3523 Q633.9553,72.0825 633.3244,72.0825 Q631.9797,72.0825 631.2949,73.1492 Q630.6101,74.2158 630.6101,76.3159 Q630.6101,78.4077 631.2949,79.4744 Q631.9797,80.541 633.3244,80.541 Q633.9553,80.541 634.5488,80.2712 Q635.1423,80.0015 635.7731,79.4204 Z "/><text fill="#000000" font-family="sans-serif" font-size="12" lengthAdjust="spacingAndGlyphs" textLength="79" x="648.7" y="80.5352">NamedParam</text><line style="stroke: #A80036; stroke-width: 1.5;" x1="613" x2="736" y1="92" y2="92"/><ellipse cx="623" cy="103.9775" fill="none" rx="3" ry="3" style="stroke: #038048; stroke-width: 1.0;"/><text fill="#000000" font-family="sans-serif" font-size="11" lengthAdjust="spacingAndGlyphs" textLength="67" x="632" y="106.6348">name: String</text><ellipse cx="623" cy="116.9326" fill="none" rx="3" ry="3" style="stroke: #038048; stroke-width: 1.0;"/><text fill="#000000" font-family="sans-serif" font-size="11" lengthAdjust="spacingAndGlyphs" textLength="61" x="632" y="119.5898">type: String</text><ellipse cx="623" cy="129.8877" fill="none" rx="3" ry="3" style="stroke: #038048; stroke-width: 1.0;"/><text fill="#000000" font-family="sans-serif" font-size="11" lengthAdjust="spacingAndGlyphs" textLength="99" x="632" y="132.5449">description: String</text><line style="stroke: #A80036; stroke-width: 1.5;" x1="613" x2="736" y1="138.8652" y2="138.8652"/><!--link Entity to Property--><path d="M299.5,212.275 C299.5,232.9047 299.5,254.6622 299.5,275.8142 " fill="none" id="Entity-Property" style="stroke: #A80036; stroke-width: 1.0;"/><polygon fill="#A80036" points="299.5,199.2467,295.5,205.2467,299.5,211.2467,303.5,205.2467,299.5,199.2467" style="stroke: #A80036; stroke-width: 1.0;"/><text fill="#000000" font-family="sans-serif" font-size="13" lengthAdjust="spacingAndGlyphs" textLength="64" x="300.5" y="242.5684">properties</text><text fill="#000000" font-family="sans-serif" font-size="13" lengthAdjust="spacingAndGlyphs" textLength="22" x="276.8297" y="265.1456">1..*</text><!--link Entity to Relationship--><path d="M428.8174,195.4357 C430.7194,196.6387 432.6143,197.8275 434.5,199 C495.4681,236.9086 520.4813,231.0993 576.5,276 C582.5686,280.8642 588.5702,286.0875 594.4537,291.5436 " fill="none" id="Entity-Relationship" style="stroke: #A80036; stroke-width: 1.0;"/><polygon fill="#A80036" points="417.8636,188.4037,420.7517,195.0112,427.9617,194.8866,425.0736,188.2791,417.8636,188.4037" style="stroke: #A80036; stroke-width: 1.0;"/><text fill="#000000" font-family="sans-serif" font-size="13" lengthAdjust="spacingAndGlyphs" textLength="82" x="531.5" y="242.5684">relationships</text><text fill="#000000" font-family="sans-serif" font-size="13" lengthAdjust="spacingAndGlyphs" textLength="6" x="580.4999" y="279.2188">*</text><!--link Entity to Query--><path d="M225.6377,210.0322 C198.8263,248.7025 169.0899,291.5914 144.4422,327.141 " fill="none" id="Entity-Query" style="stroke: #A80036; stroke-width: 1.0;"/><polygon fill="#A80036" points="233.1156,199.2467,226.4097,201.8983,226.2782,209.1082,232.9841,206.4566,233.1156,199.2467" style="stroke: #A80036; stroke-width: 1.0;"/><text fill="#000000" font-family="sans-serif" font-size="13" lengthAdjust="spacingAndGlyphs" textLength="46" x="209.5" y="242.5684">queries</text><text fill="#000000" font-family="sans-serif" font-size="13" lengthAdjust="spacingAndGlyphs" textLength="6" x="143.2023" y="316.7485">*</text><!--link Property to ValueDomain--><path d="M367.4983,542.8684 C381.8208,572.2236 395.5739,600.4117 405.4799,620.715 " fill="none" id="Property-ValueDomain" style="stroke: #A80036; stroke-width: 1.0;"/><polygon fill="#A80036" points="361.7722,531.1324,360.8083,538.2788,367.0342,541.9172,367.9981,534.7708,361.7722,531.1324" style="stroke: #A80036; stroke-width: 1.0;"/><text fill="#000000" font-family="sans-serif" font-size="13" lengthAdjust="spacingAndGlyphs" textLength="47" x="382.5" y="574.5684">domain</text><text fill="#000000" font-family="sans-serif" font-size="13" lengthAdjust="spacingAndGlyphs" textLength="24" x="375.907" y="610.4237">0..1</text><!--link Relationship to PropertyMapping--><path d="M687.5,537.8913 C687.5,563.2611 687.5,588.0467 687.5,607.9602 " fill="none" id="Relationship-PropertyMapping" style="stroke: #A80036; stroke-width: 1.0;"/><polygon fill="#A80036" points="687.5,524.594,683.5,530.594,687.5,536.594,691.5,530.594,687.5,524.594" style="stroke: #A80036; stroke-width: 1.0;"/><text fill="#000000" font-family="sans-serif" font-size="13" lengthAdjust="spacingAndGlyphs" textLength="62" x="688.5" y="574.5684">mappings</text><text fill="#000000" font-family="sans-serif" font-size="13" lengthAdjust="spacingAndGlyphs" textLength="6" x="681.0031" y="597.112">*</text><!--link ValueDomainType to ValueDomain--><path d="M474.5267,460.0911 C460.459,509.9309 440.4998,580.6435 429.1948,620.6955 " fill="none" id="ValueDomainType-ValueDomain" style="stroke: #A80036; stroke-width: 1.0;"/><polygon fill="#A80036" points="478.1465,447.2665,472.667,451.9543,474.8867,458.8153,480.3662,454.1275,478.1465,447.2665" style="stroke: #A80036; stroke-width: 1.0;"/><text fill="#000000" font-family="sans-serif" font-size="13" lengthAdjust="spacingAndGlyphs" textLength="47" x="446.5" y="574.5684">domain</text><text fill="#000000" font-family="sans-serif" font-size="13" lengthAdjust="spacingAndGlyphs" textLength="8" x="422.1631" y="610.4002">1</text><!--link ValueDomain to ValueItem--><path d="M420.5,695.5562 C420.5,719.1884 420.5,748.2146 420.5,771.7934 " fill="none" id="ValueDomain-ValueItem" style="stroke: #A80036; stroke-width: 1.0;"/><polygon fill="#A80036" points="420.5,682.3471,416.5,688.3471,420.5,694.3471,424.5,688.3471,420.5,682.3471" style="stroke: #A80036; stroke-width: 1.0;"/><text fill="#000000" font-family="sans-serif" font-size="13" lengthAdjust="spacingAndGlyphs" textLength="48" x="421.5" y="738.5684">choices</text><text fill="#000000" font-family="sans-serif" font-size="13" lengthAdjust="spacingAndGlyphs" textLength="6" x="414.0219" y="761.2362">*</text><!--
@startuml


class Query {
  + name: String
  + identifier: String
  + type: String
  + result_entity_name: String?
  + description: String
  + cardinality: String
  + snippet: String
  + {get} oneliner: Boolean
}








class Entity {
  + name: String
  + namespace: String
  + identifier: String
  + description: String
  + value_object: Boolean
  + {get} class_name: String
  + {get} inherited: Boolean
  + {get} top_level: Boolean
  + {get} supports_namespace: Boolean
  + {get} fqn: String
  + {get} primary_key_names: List<String>
}


Entity *- - "1..*" Property : properties



Entity *- - "*" Relationship : relationships



Entity *- - "*" Query : queries























class Property {
  + name: String
  + identifier: String
  + primary_key: Boolean
  + type: String
  + domain_type_name: String?
  + size: Int
  + optional: Boolean
  + description: String
  + default_value: String?
  + example_value: String
  + table_column_name: String
  + snippet: String?
  + multiple: Boolean
  + {get} property_name: String
  + {get} class_name: String
  + {get} nullable: Boolean
}




Property *- - "0..1" ValueDomain : domain







class Relationship {
  + name: String
  + identifier: String
  + cardinality: String
  + reference_entity_name: String
  + aggregate: Boolean
  + inherited: Boolean
  + description: String
  + snippet: String?
  + {get} class_name: String
  + {get} multiple: Boolean
  + {get} allows_empty: Boolean
  + {get} nullable: Boolean
  + {get} property_name: String
  + {get} bidirectional: Boolean
  + {get} recursive: Boolean
}




Relationship *- - "*" PropertyMapping : mappings







class ValueDomainType {
  + name: String
  + type: String
  + description: String
}


ValueDomainType *- - "1" ValueDomain : domain





class ValueDomain {
  + pattern: String?
}


ValueDomain *- - "*" ValueItem : choices





class ValueItem {
  + value: String
  + label: String
  + description: String
}




class PropertyMapping {
  + from: String
  + to: String
  + null_value: String?
}










class NamedValue {
  + name: String
  + expression: String
}




class NamedParam {
  + name: String
  + type: String
  + description: String
}



@enduml

PlantUML version 1.2019.03(Sun Mar 10 20:04:44 JST 2019)
(GPL source distribution)
Java Runtime: OpenJDK Runtime Environment
JVM: OpenJDK 64-Bit Server VM
Java Version: 1.8.0_172-b01
Operating System: Mac OS X
OS Version: 10.14.4
Default Encoding: UTF-8
Language: en
Country: JP
--></g></svg>